<svg width="14" height="14" viewBox="0 0 14 14" fill="none" xmlns="http://www.w3.org/2000/svg">
<g clip-path="url(#clip0_659_2)">
<path d="M11.0834 4.66667V4.123C11.0826 3.33917 10.7709 2.58766 10.2167 2.03341C9.66242 1.47916 8.91091 1.16744 8.12708 1.16667H7.58342V0H6.41675V1.16667H5.87308C5.17152 1.16742 4.49308 1.41764 3.95904 1.8726C3.42501 2.32757 3.07017 2.95763 2.95796 3.65016C2.84575 4.3427 2.98349 5.05256 3.34654 5.65288C3.7096 6.2532 4.27431 6.70485 4.93975 6.92708L6.41675 7.42V11.6667H5.87308C5.39857 11.6662 4.94364 11.4775 4.60811 11.142C4.27258 10.8064 4.08388 10.3515 4.08341 9.877V9.33333H2.91675V9.877C2.91752 10.6608 3.22924 11.4123 3.78349 11.9666C4.33774 12.5208 5.08925 12.8326 5.87308 12.8333H6.41675V14H7.58342V12.8333H8.12708C8.82865 12.8326 9.50708 12.5824 10.0411 12.1274C10.5752 11.6724 10.93 11.0424 11.0422 10.3498C11.1544 9.6573 11.0167 8.94744 10.6536 8.34712C10.2906 7.7468 9.72585 7.29515 9.06041 7.07292L7.58342 6.58V2.33333H8.12708C8.60159 2.3338 9.05653 2.5225 9.39206 2.85803C9.72758 3.19355 9.91629 3.64849 9.91675 4.123V4.66667H11.0834ZM8.69175 8.17892C9.09498 8.31312 9.4373 8.58645 9.65744 8.94998C9.87757 9.3135 9.96116 9.7435 9.89324 10.163C9.82532 10.5825 9.61032 10.9642 9.28673 11.2397C8.96314 11.5152 8.55207 11.6665 8.12708 11.6667H7.58342V7.80908L8.69175 8.17892ZM6.41675 6.19092L5.30842 5.82108C4.90518 5.68687 4.56286 5.41355 4.34273 5.05002C4.12259 4.6865 4.039 4.2565 4.10692 3.83698C4.17484 3.41746 4.38984 3.0358 4.71343 2.7603C5.03703 2.4848 5.4481 2.33345 5.87308 2.33333H6.41675V6.19092Z" fill="white"/>
</g>
<defs>
<clipPath id="clip0_659_2">
<rect width="14" height="14" fill="white"/>
</clipPath>
</defs>
</svg>
