<svg width="36" height="36" viewBox="0 0 36 36" fill="none" xmlns="http://www.w3.org/2000/svg">
<g clip-path="url(#clip0_714_8883)">
<path fill-rule="evenodd" clip-rule="evenodd" d="M22.5 22.5L23.9955 24.21C24.1363 24.3711 24.3099 24.5002 24.5047 24.5887C24.6995 24.6772 24.911 24.723 25.125 24.723C25.339 24.723 25.5505 24.6772 25.7453 24.5887C25.9401 24.5002 26.1137 24.3711 26.2545 24.21L27.75 22.5H31.5C31.077 24.6149 29.9343 26.5179 28.2664 27.8853C26.5984 29.2527 24.5083 29.9999 22.3515 30H13.6485C11.4917 29.9999 9.40157 29.2527 7.73364 27.8853C6.06571 26.5179 4.92303 24.6149 4.5 22.5H22.5Z" fill="#212121"/>
<path fill-rule="evenodd" clip-rule="evenodd" d="M31.5 13.5H4.5C4.92303 11.3851 6.06571 9.48211 7.73364 8.11473C9.40157 6.74735 11.4917 6.00006 13.6485 6H22.3515C24.5083 6.00006 26.5984 6.74735 28.2664 8.11473C29.9343 9.48211 31.077 11.3851 31.5 13.5Z" fill="#212121"/>
<path opacity="0.3" d="M31.5 16.5H4.5C3.67157 16.5 3 17.1716 3 18C3 18.8284 3.67157 19.5 4.5 19.5H31.5C32.3284 19.5 33 18.8284 33 18C33 17.1716 32.3284 16.5 31.5 16.5Z" fill="#212121"/>
</g>
<defs>
<clipPath id="clip0_714_8883">
<rect width="36" height="36" fill="white"/>
</clipPath>
</defs>
</svg>
