<svg width="250" height="200" viewBox="0 0 250 200" fill="none" xmlns="http://www.w3.org/2000/svg">
<path d="M120.948 198.097C119.479 198.097 118.007 198.075 116.535 198.033C104.434 197.682 92.5248 195.9 81.1386 192.735C69.5193 189.505 58.6991 184.903 48.979 179.056C28.8826 166.998 13.6922 148.404 6.03183 126.486C1.73558 114.2 -0.386063 100.765 0.0578666 88.6567C0.310688 81.7611 1.37764 75.2882 3.22913 69.4179C5.25946 62.9806 8.24657 57.2386 12.1075 52.3511C15.671 47.8402 19.8285 44.5476 24.465 42.5646C28.6136 40.7903 33.2768 40.0114 38.3259 40.2494C42.7046 40.4561 47.3691 41.3926 52.5859 43.1125C56.7369 44.4811 61.1117 46.2966 66.354 48.8259C78.307 54.5933 87.6344 57.8112 96.5974 59.2599C107.531 61.0269 117.91 60.0307 128.329 56.2142C137.941 52.6932 146.667 46.6762 155.106 40.8576C165.517 33.6795 176.282 26.2571 188.872 23.3739C194.749 22.016 200.852 21.8996 206.779 23.0323C212.406 24.1037 217.834 26.2604 222.91 29.4425C227.831 32.528 232.243 36.46 236.021 41.1294C239.804 45.8028 242.803 51.0423 244.905 56.6493C249.328 68.4328 250.882 80.9548 249.525 93.8674C248.266 105.838 244.556 117.846 238.496 129.557C227.004 151.768 207.823 171.136 185.874 182.694C175.609 188.1 164.339 192.158 152.377 194.757C142.054 196.987 131.516 198.107 120.948 198.097ZM36.5676 41.8182C32.4165 41.8182 28.5713 42.5641 25.116 44.042C20.7336 45.9163 16.791 49.0446 13.3976 53.3402C9.65805 58.0742 6.76201 63.6443 4.79028 69.8959C2.9817 75.63 1.93919 81.9616 1.69152 88.7148C1.25479 100.63 3.34512 113.858 7.57752 125.961C15.114 147.525 30.0591 165.819 49.8309 177.682C59.4238 183.452 70.1066 187.995 81.5826 191.185C92.8399 194.314 104.616 196.076 116.583 196.423C128.604 196.771 140.528 195.681 152.024 193.184C163.841 190.617 174.97 186.61 185.103 181.274C206.765 169.867 225.695 150.75 237.04 128.825C243.007 117.292 246.661 105.474 247.899 93.7015C249.23 81.0363 247.707 68.7581 243.372 57.2079C241.33 51.7618 238.417 46.6726 234.742 42.1334C231.077 37.6035 226.801 33.7908 222.032 30.8012C217.13 27.7283 211.894 25.6464 206.468 24.6137C200.767 23.5242 194.896 23.6363 189.242 24.9426C183.741 26.2025 178.103 28.4726 172.006 31.8826C166.54 34.9398 161.204 38.619 156.044 42.177C147.52 48.0539 138.707 54.1308 128.899 57.7237C118.207 61.6405 107.554 62.6629 96.3326 60.8491C87.2052 59.3739 77.7378 56.1119 65.635 50.2724C60.4591 47.775 56.1478 45.9852 52.0671 44.6398C46.9947 42.9675 42.4743 42.0576 38.2477 41.8582C37.6824 41.8315 37.1224 41.8182 36.5676 41.8182Z" fill="#C8DEF4"/>
<path d="M222.991 19.5852C207.666 1.23448 180.909 -6.53087 160.045 6.43308C140.409 18.634 131.624 42.5247 113.875 56.9649C95.2663 72.1042 74.7809 72.8982 52.2511 70.1964C32.831 67.8675 10.7282 68.2335 3.05432 90.52C-5.26729 114.687 7.01175 143.128 21.8733 161.758C36.5257 180.127 56.9615 192.43 79.482 197.248C124.367 206.85 177.257 190.792 209.236 156.676C242.295 121.408 256.401 59.5891 222.991 19.5852Z" fill="#C8DEF4"/>
<path d="M124.42 46.8921L55.6038 105.138L56.8845 131.492C56.8845 134.635 60.7337 179.205 64.3948 179.205L128.652 136.841L186.55 174.856C190.211 174.856 197.279 133.437 197.279 130.294L201.559 105.076L132.681 46.8922C130.264 45.2391 126.837 45.239 124.42 46.8921Z" fill="#211F44"/>
<path d="M184.167 67.7522H73.1364C70.1779 67.7522 67.7795 70.1149 67.7795 73.0296V184.449C67.7795 187.363 70.1779 189.726 73.1364 189.726H184.167C187.125 189.726 189.524 187.363 189.524 184.449V73.0296C189.524 70.1149 187.125 67.7522 184.167 67.7522Z" fill="white"/>
<path d="M103.706 81.8396L114.925 81.1396C115.248 81.1396 115.56 81.4467 115.859 82.0607C115.859 82.9943 114.762 83.4609 112.569 83.4606L106.025 83.829L105.875 83.9026C106.498 87.9062 106.809 95.5076 106.81 106.707C106.685 107.787 106.292 108.328 105.632 108.328C104.971 108.328 104.591 107.837 104.491 106.854V98.3072C104.491 92.6096 104.23 87.8572 103.706 84.0501C99.2432 84.468 97.012 84.9592 97.0123 85.5236L96.6758 85.671C95.9027 85.45 95.5163 85.057 95.5165 84.4921C95.5165 83.1417 98.2463 82.2575 103.706 81.8396Z" fill="#211F44"/>
<path d="M114.251 84.75C114.949 84.75 115.298 85.585 115.298 87.2551L115.747 93.5917H115.896L117.766 92.8916C119.86 92.8916 121.132 95.0038 121.58 99.2282C121.754 100.432 121.842 102.2 121.842 104.533V107.517C121.842 108.45 121.493 108.917 120.795 108.917H120.645C119.972 108.819 119.636 108.463 119.636 107.849V104.386C119.636 98.8357 119.087 95.7656 117.991 95.1758H117.766C117.018 95.1758 116.47 96.3056 116.121 98.5651V100.628C116.121 104.312 115.809 106.154 115.186 106.154L114.475 106.228C113.777 106.228 113.428 105.209 113.428 103.17C113.503 101.009 113.653 99.2409 113.877 97.8652L113.092 85.7447C113.092 85.1064 113.478 84.7748 114.251 84.75ZM130.966 90.8654C132.063 90.8654 132.611 91.2953 132.612 92.1549L132.275 92.8548L132.051 99.5966C132.051 102.642 132.674 104.533 133.92 105.27L133.995 105.823C133.92 106.535 133.584 106.891 132.986 106.891H132.761C130.891 105.638 129.957 103.723 129.957 101.144H129.695C128.698 103.895 127.488 105.27 126.068 105.27C124.746 104.902 124.085 103.932 124.086 102.36C124.086 98.8967 125.494 95.446 128.311 92.0075C129.258 91.2466 130.143 90.8658 130.966 90.8654ZM126.441 100.886L126.292 101.918V102.618H126.666C128.536 98.0251 129.471 95.2253 129.471 94.2179H129.321C127.875 95.8147 126.915 98.0374 126.441 100.886ZM140.128 92.6707C142.246 92.8428 143.306 93.862 143.306 95.7284L143.381 96.2074L143.306 101.954C143.306 102.618 143.693 103.514 144.466 104.644V104.717C144.266 105.43 143.904 105.786 143.381 105.786C141.835 105.147 141.062 103.796 141.063 101.733V101.255L140.95 101.181L141.063 101.033V100.96L141.175 95.8758C141.175 95.1637 140.863 94.8076 140.24 94.8074H139.791C138.544 95.299 137.921 97.9883 137.921 102.875C137.921 104.57 137.485 105.417 136.613 105.417C135.94 105.417 135.59 105 135.566 104.165V100.481C135.566 95.7163 135.989 93.334 136.837 93.3338L137.211 93.2233L137.996 93.3338C138.623 92.9061 139.366 92.675 140.128 92.6707ZM147.906 85.5973H148.13C148.454 85.5973 148.765 85.8675 149.065 86.4078L148.915 88.913V90.3129L149.065 96.7599L149.177 97.1284H149.289C150.361 96.1464 151.296 94.4149 152.094 91.9339L152.917 91.676C153.614 91.7744 153.963 92.0814 153.964 92.597C153.964 94.1938 152.804 96.3428 150.486 99.044V99.3019C153.552 102.814 155.572 104.57 156.544 104.57H156.768L157.703 104.017H158.04C158.563 104.017 158.95 104.361 159.199 105.049C159.199 105.835 158.314 106.375 156.544 106.67C154.773 106.67 152.467 104.902 149.626 101.365H149.289L149.401 103.354V105.27C149.252 106.031 148.865 106.412 148.242 106.412C147.544 106.265 147.195 105.884 147.195 105.27V105.049L147.046 100.812C146.771 100.812 146.584 100.432 146.485 99.6704L146.971 98.7493L146.746 90.4603V88.8393C146.746 86.6783 147.133 85.5977 147.906 85.5973ZM112.082 113.179C112.954 113.179 113.553 115.07 113.877 118.852C114.301 120.596 114.612 121.468 114.812 121.468H115.036C115.659 119.921 115.971 118.385 115.971 116.863L115.747 114.321C116.021 113.658 116.407 113.326 116.906 113.326C117.828 113.326 118.289 114.935 118.289 118.152C118.838 121.493 119.112 124.599 119.112 127.473V129.204C119.112 134.485 117.591 138.046 114.55 139.888L113.727 140.035C112.306 140.035 110.985 138.734 109.763 136.13L109.427 133.92V133.809C109.427 132.188 109.888 131.378 110.81 131.378L111.745 131.967L111.633 134.288C111.633 135.418 112.219 136.56 113.391 137.714H113.877C115.248 137.714 116.257 135.136 116.906 129.978L116.981 127.841C116.956 125.36 116.856 123.776 116.682 123.089C115.684 123.949 114.899 124.379 114.326 124.378C113.054 124.378 111.92 121.026 110.923 114.321L110.81 114.247C110.81 113.682 111.234 113.326 112.082 113.179ZM127.152 110.342C128.997 110.342 130.393 111.693 131.34 114.395L131.49 115.168C131.49 117.796 130.244 120.486 127.75 123.236C126.753 124.145 125.743 124.599 124.721 124.599C123.226 124.599 122.166 123.752 121.543 122.057C121.319 121.272 121.206 120.584 121.206 119.994V119.552C121.206 115.672 122.64 112.725 125.507 110.71C126.018 110.462 126.582 110.336 127.152 110.342ZM123.413 119.921C123.413 121.591 123.849 122.426 124.721 122.426C126.541 122.426 128.049 120.129 129.246 115.537V114.837C128.822 113.314 128.037 112.553 126.89 112.553C126.442 112.553 126.217 112.859 126.217 113.473C126.217 113.891 125.719 114.223 124.721 114.468C123.848 115.918 123.412 117.735 123.413 119.921ZM135.005 113.142L135.678 112.774C136.276 112.774 136.712 113.13 136.987 113.842C136.585 115.682 136.385 117.559 136.388 119.442C136.388 120.399 136.675 121.443 137.249 122.573H137.473C138.196 122.573 139.056 119.761 140.053 114.137C140.402 113.842 140.739 113.695 141.063 113.695C141.835 113.695 142.222 115.045 142.222 117.747C142.546 120.719 142.907 122.205 143.306 122.205L143.867 121.984C144.59 122.254 144.952 122.635 144.952 123.126C144.503 124.059 143.88 124.526 143.082 124.526C142.185 124.526 141.325 123.641 140.502 121.873C139.504 123.936 138.495 124.968 137.473 124.968C135.952 124.968 134.892 123.408 134.294 120.289L134.182 119.11V118.742C134.172 116.845 134.449 114.958 135.005 113.142Z" fill="#211F44"/>
<path d="M130.062 149.185L163.268 116.998C171.989 108.545 184.436 103.715 197.5 103.715C200.568 103.715 203.055 105.635 203.055 108.004V194.034C203.055 196.403 198.908 200 195.84 200H176.972L130.062 154.53C128.493 153.009 128.493 150.706 130.062 149.185Z" fill="#262F5F"/>
<path d="M127.241 149.126L94.0352 116.939C85.3146 108.486 72.8673 103.656 59.8033 103.656C56.7351 103.656 54.248 105.576 54.248 107.945V194.491C54.248 196.86 57.809 200 60.8771 200L80.3318 199.941L127.241 154.471C128.81 152.95 128.81 150.647 127.241 149.126Z" fill="#262F5F"/>
<path d="M203.055 176.426V194.979C203.055 197.752 200.087 199.999 196.427 199.999H60.8766C57.2163 199.999 54.2481 197.752 54.2481 194.979V176.426L124.521 134.029C125.665 133.339 127.035 132.975 128.418 132.938C129.955 132.897 131.508 133.261 132.782 134.029L203.055 176.426Z" fill="#2C447D"/>
<path d="M141.812 137.737L203.055 168.533L203.055 176.426L140.71 138.805L141.812 137.737ZM115.492 137.737L54.248 168.533L54.2481 176.426L116.593 138.805L115.492 137.737Z" fill="#211F44"/>
<path d="M93.6592 35.0679L79.2962 81.0231L76.9948 88.3866L70.4333 82.9321L53.2838 68.6781L93.6592 35.0679Z" fill="#2C447D"/>
<path d="M93.6585 35.0679L43.7578 63.4606L21.0595 56.0499L93.6585 35.0679Z" fill="#262F5F"/>
<path d="M93.6585 35.0679L53.2844 68.6784L45.5246 83.9631L43.7578 63.4606L93.6585 35.0679Z" fill="#211F44"/>
<path d="M108.736 190.594C108.657 190.594 108.579 190.583 108.503 190.561C106.825 190.068 105.167 189.513 103.532 188.895C103.431 188.858 103.339 188.801 103.26 188.729C103.181 188.656 103.118 188.569 103.074 188.472C103.03 188.375 103.006 188.27 103.003 188.164C103 188.058 103.018 187.952 103.056 187.853C103.095 187.754 103.153 187.663 103.227 187.587C103.302 187.51 103.391 187.448 103.489 187.405C103.588 187.362 103.694 187.339 103.802 187.336C103.91 187.334 104.017 187.353 104.117 187.391C105.713 187.994 107.331 188.536 108.969 189.017C109.157 189.072 109.319 189.192 109.425 189.355C109.531 189.518 109.573 189.713 109.545 189.905C109.517 190.096 109.419 190.271 109.271 190.398C109.122 190.525 108.933 190.594 108.736 190.594ZM97.4999 186.191C97.3722 186.191 97.2464 186.162 97.1325 186.105C95.5698 185.328 94.0371 184.494 92.5375 183.605C92.4456 183.55 92.3654 183.478 92.3017 183.393C92.2379 183.308 92.1918 183.212 92.1659 183.109C92.14 183.006 92.135 182.9 92.1509 182.795C92.1669 182.691 92.2036 182.59 92.259 182.5C92.3144 182.409 92.3873 182.33 92.4737 182.267C92.56 182.204 92.6581 182.159 92.7623 182.134C92.8665 182.108 92.9747 182.103 93.0809 182.119C93.187 182.134 93.289 182.171 93.3809 182.225C94.8454 183.094 96.3423 183.908 97.8685 184.667C98.0328 184.748 98.1643 184.882 98.2418 185.047C98.3193 185.211 98.3383 185.396 98.2957 185.573C98.2531 185.749 98.1513 185.906 98.0069 186.018C97.8625 186.13 97.6838 186.191 97.4999 186.191ZM87.2199 179.918C87.0436 179.918 86.872 179.862 86.731 179.758C85.3293 178.725 83.9676 177.64 82.6488 176.506C82.5124 176.389 82.4194 176.231 82.3845 176.056C81.6172 176.322 80.8368 176.549 80.0461 176.738C79.9414 176.764 79.8323 176.769 79.7254 176.754C79.6185 176.738 79.5158 176.702 79.4232 176.647C79.3306 176.592 79.25 176.519 79.1861 176.434C79.1222 176.348 79.0761 176.25 79.0507 176.147C79.0252 176.043 79.0209 175.936 79.0379 175.831C79.0549 175.725 79.0929 175.625 79.1497 175.534C79.2064 175.443 79.2809 175.365 79.3688 175.303C79.4566 175.241 79.5561 175.196 79.6614 175.172C81.2844 174.789 82.8574 174.223 84.3498 173.486C84.4457 173.439 84.5501 173.41 84.6572 173.402C84.7642 173.395 84.8718 173.408 84.9737 173.441C85.0757 173.474 85.17 173.527 85.2513 173.596C85.3326 173.665 85.3993 173.749 85.4476 173.843C85.4959 173.938 85.5248 174.041 85.5327 174.146C85.5407 174.251 85.5274 174.357 85.4938 174.458C85.4602 174.558 85.4068 174.651 85.3367 174.731C85.2666 174.811 85.1812 174.877 85.0853 174.925C84.7042 175.114 84.3162 175.293 83.9212 175.462C85.1474 176.508 86.4112 177.511 87.7101 178.468C87.8477 178.569 87.9493 178.711 88.0007 178.872C88.052 179.034 88.0505 179.207 87.9962 179.367C87.942 179.528 87.8378 179.667 87.6984 179.766C87.5591 179.865 87.3917 179.918 87.2199 179.918ZM72.9888 177.396C72.9757 177.396 72.9626 177.396 72.9495 177.395C71.1722 177.308 69.4064 177.064 67.6732 176.666C67.4619 176.618 67.2787 176.49 67.1637 176.309C67.0488 176.127 67.0116 175.909 67.0604 175.701C67.1091 175.493 67.2397 175.312 67.4236 175.199C67.6074 175.086 67.8293 175.049 68.0406 175.097C69.6785 175.473 71.3473 175.703 73.027 175.786C73.2405 175.796 73.4418 175.887 73.5878 176.041C73.7337 176.195 73.8126 176.399 73.8076 176.61C73.8026 176.82 73.7141 177.02 73.5611 177.167C73.408 177.314 73.2026 177.396 72.9888 177.396ZM61.3169 174.495C61.2019 174.495 61.0883 174.471 60.9834 174.425C59.3768 173.713 57.8132 172.91 56.3004 172.02C56.2071 171.967 56.1256 171.895 56.0605 171.811C55.9954 171.726 55.9479 171.629 55.9209 171.526C55.8939 171.423 55.8878 171.316 55.903 171.211C55.9183 171.106 55.9545 171.004 56.0097 170.913C56.0649 170.822 56.1379 170.742 56.2245 170.678C56.3111 170.615 56.4096 170.569 56.5143 170.543C56.619 170.518 56.7278 170.513 56.8345 170.528C56.9413 170.544 57.0437 170.581 57.136 170.636C58.5946 171.494 60.1022 172.268 61.6512 172.955C61.822 173.03 61.9614 173.161 62.0461 173.325C62.1308 173.49 62.1556 173.678 62.1165 173.858C62.0774 174.038 61.9766 174.2 61.8311 174.316C61.6856 174.432 61.5041 174.495 61.3169 174.495ZM78.2177 171.966C78.1044 171.966 77.9923 171.943 77.8885 171.898C77.7848 171.853 77.6917 171.787 77.6152 171.705C76.4144 170.419 75.3168 169.044 74.3324 167.59C74.2718 167.502 74.2295 167.403 74.208 167.299C74.1865 167.195 74.1861 167.087 74.207 166.983C74.2278 166.879 74.2694 166.779 74.3294 166.691C74.3894 166.603 74.4666 166.527 74.5565 166.468C74.6465 166.409 74.7473 166.368 74.8533 166.348C74.9593 166.328 75.0683 166.328 75.174 166.35C75.2798 166.371 75.3802 166.413 75.4694 166.473C75.5586 166.533 75.6349 166.61 75.6938 166.699C76.6313 168.082 77.6764 169.392 78.8198 170.616C78.927 170.731 78.9979 170.875 79.0239 171.029C79.0498 171.183 79.0296 171.342 78.9658 171.485C78.9019 171.628 78.7972 171.749 78.6644 171.835C78.5315 171.92 78.3763 171.966 78.2177 171.966ZM90.2358 170.962C90.0769 170.962 89.9215 170.916 89.7886 170.831C89.6556 170.745 89.5509 170.623 89.4872 170.48C89.4235 170.336 89.4035 170.178 89.4298 170.023C89.4561 169.869 89.5275 169.726 89.6353 169.611C90.1439 169.068 90.6139 168.491 91.0422 167.885C91.55 167.163 91.9881 166.395 92.3506 165.592C92.4399 165.399 92.6033 165.248 92.8051 165.172C93.0069 165.097 93.2307 165.103 93.4277 165.19C93.6248 165.277 93.7791 165.436 93.857 165.635C93.9349 165.833 93.93 166.054 93.8435 166.248C93.4393 167.143 92.9509 167.999 92.3848 168.804C91.9135 169.471 91.3963 170.106 90.8368 170.703C90.7603 170.785 90.6674 170.85 90.5639 170.895C90.4605 170.939 90.3487 170.962 90.2358 170.962ZM51.0195 168.275C50.8367 168.275 50.6591 168.215 50.5155 168.103C49.1353 167.035 47.8055 165.906 46.5303 164.718C46.4512 164.645 46.3874 164.558 46.3426 164.461C46.2978 164.365 46.2729 164.26 46.2694 164.154C46.2659 164.047 46.2838 163.941 46.3221 163.842C46.3604 163.743 46.4183 163.652 46.4925 163.574C46.5667 163.497 46.6557 163.435 46.7543 163.392C46.853 163.348 46.9594 163.325 47.0674 163.322C47.1753 163.32 47.2827 163.339 47.3833 163.377C47.4839 163.416 47.5758 163.474 47.6535 163.548C48.8922 164.702 50.184 165.799 51.5247 166.836C51.6585 166.94 51.7562 167.082 51.8043 167.243C51.8523 167.403 51.8482 167.575 51.7926 167.733C51.737 167.891 51.6327 168.029 51.4941 168.126C51.3555 168.223 51.1896 168.275 51.0195 168.275ZM71.9812 161.848C71.8065 161.847 71.6364 161.792 71.4959 161.69C71.3554 161.588 71.2518 161.444 71.2003 161.279C70.7082 159.706 70.4585 158.172 70.4586 156.722C70.4586 156.465 70.4665 156.206 70.4821 155.954C70.4881 155.848 70.5154 155.744 70.5622 155.649C70.609 155.554 70.6746 155.468 70.755 155.398C70.8354 155.327 70.9292 155.273 71.0309 155.238C71.1326 155.204 71.2403 155.189 71.3477 155.196C71.4552 155.202 71.5603 155.229 71.657 155.276C71.7537 155.322 71.8401 155.387 71.9113 155.467C71.9825 155.546 72.037 155.639 72.0718 155.739C72.1065 155.84 72.1208 155.946 72.1138 156.052C72.1003 156.272 72.0934 156.497 72.0934 156.722C72.0934 158.012 72.3185 159.385 72.7626 160.805C72.8002 160.925 72.8086 161.053 72.7871 161.177C72.7656 161.301 72.7148 161.419 72.6388 161.52C72.5628 161.622 72.4637 161.704 72.3495 161.761C72.2353 161.818 72.1091 161.847 71.9812 161.848ZM94.5057 160.103C94.2894 160.103 94.082 160.019 93.9288 159.869C93.7756 159.718 93.6891 159.514 93.6883 159.301C93.6901 157.685 93.4092 156.081 92.858 154.559C92.7865 154.359 92.7981 154.139 92.8904 153.947C92.9828 153.755 93.1483 153.607 93.351 153.534C93.5538 153.462 93.7773 153.472 93.9728 153.561C94.1684 153.65 94.3202 153.812 94.3953 154.011C95.0103 155.707 95.3242 157.494 95.3231 159.295C95.3235 159.4 95.3028 159.505 95.2621 159.603C95.2214 159.701 95.1616 159.79 95.086 159.865C95.0104 159.94 94.9205 160 94.8215 160.041C94.7225 160.082 94.6163 160.103 94.5089 160.103L94.5057 160.103ZM42.3628 159.969C42.2427 159.969 42.1241 159.943 42.0154 159.893C41.9066 159.843 41.8105 159.769 41.7338 159.678C40.6128 158.349 39.5517 156.972 38.5538 155.551C38.4304 155.376 38.383 155.159 38.4219 154.949C38.4607 154.739 38.5827 154.552 38.761 154.431C38.9393 154.309 39.1593 154.263 39.3726 154.301C39.5859 154.339 39.775 154.459 39.8983 154.635C40.8689 156.017 41.9007 157.356 42.9909 158.649C43.0901 158.766 43.1533 158.909 43.1731 159.061C43.1928 159.213 43.1683 159.367 43.1024 159.505C43.0365 159.644 42.932 159.761 42.801 159.843C42.67 159.925 42.5181 159.969 42.3628 159.969ZM73.8447 150.608C73.6865 150.608 73.5318 150.563 73.3992 150.478C73.2667 150.393 73.162 150.272 73.0978 150.129C73.0337 149.987 73.0128 149.829 73.0378 149.675C73.0628 149.521 73.1326 149.378 73.2387 149.262C74.4472 147.946 76.0581 146.923 77.8972 146.305C77.9991 146.269 78.107 146.254 78.2149 146.26C78.3227 146.266 78.4282 146.293 78.5254 146.34C78.6226 146.386 78.7095 146.451 78.781 146.531C78.8525 146.61 78.9073 146.703 78.9422 146.804C78.9771 146.905 78.9914 147.011 78.9843 147.117C78.9771 147.224 78.9487 147.327 78.9006 147.423C78.8525 147.518 78.7858 147.603 78.7042 147.672C78.6226 147.742 78.5278 147.795 78.4252 147.829C76.8482 148.359 75.4741 149.228 74.4513 150.343C74.3747 150.426 74.2811 150.493 74.1766 150.539C74.0721 150.584 73.959 150.608 73.8447 150.608ZM35.6342 150.078C35.4856 150.078 35.3398 150.038 35.2124 149.962C35.085 149.887 34.9809 149.779 34.9113 149.649C34.0899 148.122 33.3375 146.56 32.6565 144.968C32.5723 144.771 32.5711 144.549 32.6529 144.351C32.7347 144.153 32.8929 143.996 33.0927 143.913C33.2925 143.83 33.5176 143.829 33.7183 143.909C33.9191 143.99 34.0791 144.146 34.1633 144.343C34.8254 145.891 35.557 147.41 36.3558 148.895C36.4217 149.018 36.4544 149.155 36.4505 149.294C36.4467 149.433 36.4066 149.568 36.334 149.687C36.2614 149.806 36.1588 149.905 36.0362 149.973C35.9136 150.041 35.7752 150.077 35.6342 150.078ZM89.6735 149.607C89.4937 149.607 89.3189 149.549 89.1765 149.441C87.8854 148.484 86.3964 147.819 84.8151 147.493C84.709 147.472 84.6082 147.43 84.5186 147.37C84.429 147.311 84.3524 147.234 84.2931 147.145C84.2339 147.055 84.1932 146.955 84.1735 146.851C84.1538 146.746 84.1554 146.638 84.1782 146.534C84.201 146.43 84.2447 146.331 84.3065 146.243C84.3684 146.156 84.4473 146.081 84.5386 146.024C84.63 145.967 84.7319 145.928 84.8386 145.91C84.9453 145.892 85.0545 145.895 85.16 145.919C87.0201 146.314 88.7531 147.091 90.1718 148.163C90.3073 148.266 90.4069 148.407 90.4564 148.568C90.506 148.73 90.503 148.902 90.4481 149.061C90.3931 149.221 90.2888 149.359 90.1499 149.457C90.0109 149.555 89.8444 149.607 89.6735 149.607ZM31.1156 139.035C30.9379 139.035 30.765 138.977 30.6232 138.872C30.4814 138.766 30.3784 138.618 30.3297 138.45C29.8492 136.786 29.4474 135.102 29.1257 133.402C29.0861 133.192 29.1327 132.975 29.2554 132.799C29.3781 132.623 29.5667 132.502 29.7799 132.463C29.993 132.424 30.2132 132.47 30.3919 132.591C30.5707 132.712 30.6934 132.898 30.733 133.108C31.0454 134.758 31.4355 136.394 31.9021 138.009C31.9366 138.129 31.9425 138.255 31.9192 138.377C31.8959 138.5 31.8441 138.615 31.7679 138.714C31.6917 138.814 31.5931 138.895 31.4799 138.95C31.3668 139.006 31.242 139.035 31.1156 139.035ZM29.0958 127.298C28.8874 127.298 28.6869 127.219 28.5354 127.078C28.3839 126.937 28.2927 126.745 28.2806 126.54C28.1787 124.814 28.1571 123.084 28.2159 121.356C28.2231 121.143 28.3161 120.941 28.4744 120.795C28.6327 120.649 28.8434 120.571 29.06 120.578C29.2767 120.585 29.4816 120.677 29.6297 120.833C29.7778 120.989 29.857 121.196 29.8498 121.41C29.7927 123.089 29.8136 124.769 29.9126 126.446C29.9189 126.552 29.904 126.657 29.8687 126.757C29.8335 126.857 29.7787 126.949 29.7073 127.028C29.636 127.107 29.5495 127.172 29.4529 127.218C29.3563 127.264 29.2514 127.291 29.1443 127.297C29.128 127.298 29.1118 127.298 29.0958 127.298ZM29.6768 115.406C29.5589 115.406 29.4424 115.381 29.3352 115.332C29.2281 115.284 29.1328 115.213 29.056 115.125C28.9791 115.037 28.9226 114.934 28.8901 114.822C28.8576 114.71 28.8501 114.593 28.8679 114.478C29.1349 112.77 29.478 111.075 29.8963 109.397C29.9214 109.293 29.9669 109.196 30.0303 109.11C30.0937 109.024 30.1738 108.952 30.2658 108.897C30.3578 108.841 30.4599 108.804 30.5664 108.788C30.6729 108.772 30.7816 108.777 30.8862 108.802C30.9909 108.827 31.0894 108.873 31.1761 108.936C31.2629 108.999 31.3361 109.078 31.3916 109.169C31.4472 109.26 31.4839 109.361 31.4997 109.466C31.5156 109.571 31.5102 109.678 31.4838 109.781C31.0771 111.413 30.7434 113.062 30.4837 114.723C30.4541 114.913 30.3564 115.086 30.2084 115.211C30.0605 115.337 29.8719 115.406 29.6768 115.406ZM32.7317 103.886C32.5996 103.886 32.4696 103.854 32.3526 103.794C32.2357 103.733 32.1354 103.646 32.0602 103.539C31.985 103.432 31.9372 103.309 31.9209 103.18C31.9045 103.05 31.9202 102.919 31.9664 102.798C32.5824 101.179 33.2711 99.5888 34.0304 98.0309C34.1243 97.8384 34.292 97.6905 34.4966 97.6198C34.7011 97.5491 34.9258 97.5613 35.1212 97.6538C35.3166 97.7463 35.4667 97.9115 35.5385 98.1131C35.6103 98.3146 35.5979 98.536 35.504 98.7285C34.7657 100.243 34.0961 101.79 33.4972 103.363C33.4388 103.516 33.3342 103.649 33.1974 103.742C33.0606 103.836 32.8981 103.886 32.7317 103.886ZM38.1331 93.2353C37.9865 93.2351 37.8427 93.1961 37.7166 93.1223C37.5906 93.0486 37.487 92.9428 37.4167 92.816C37.3464 92.6893 37.312 92.5463 37.3171 92.4019C37.3222 92.2576 37.3666 92.1172 37.4456 91.9956C38.3925 90.5392 39.4082 89.1274 40.4893 87.7647C40.555 87.6802 40.637 87.6095 40.7307 87.5565C40.8243 87.5035 40.9277 87.4693 41.0348 87.4559C41.142 87.4425 41.2507 87.4501 41.3549 87.4784C41.459 87.5066 41.5564 87.5549 41.6414 87.6204C41.7265 87.686 41.7976 87.7675 41.8505 87.8602C41.9034 87.953 41.9371 88.0551 41.9497 88.1608C41.9623 88.2665 41.9535 88.3736 41.9238 88.4759C41.8942 88.5782 41.8443 88.6737 41.7769 88.7568C40.7275 90.0798 39.7415 91.4505 38.8222 92.8643C38.7482 92.9782 38.6463 93.0719 38.5259 93.1367C38.4054 93.2016 38.2704 93.2355 38.1331 93.2353Z" fill="#749DD3"/>
<path d="M192.744 64.5356C192.583 64.5356 192.425 64.4884 192.29 64.3999C192.156 64.3114 192.051 64.1856 191.989 64.0385C191.927 63.8913 191.911 63.7294 191.943 63.5731C191.974 63.4169 192.052 63.2734 192.166 63.1608L197.523 57.8838C197.676 57.7328 197.884 57.648 198.101 57.6479C198.318 57.6479 198.526 57.7328 198.679 57.8838C198.832 58.0348 198.918 58.2396 198.918 58.4532C198.918 58.6668 198.832 58.8716 198.679 59.0227L193.322 64.2996C193.247 64.3745 193.156 64.4339 193.057 64.4744C192.958 64.5149 192.852 64.5357 192.744 64.5356Z" fill="#262F5F"/>
<path d="M192.744 64.737C192.542 64.7371 192.345 64.6781 192.177 64.5675C192.009 64.4568 191.878 64.2996 191.8 64.1157C191.723 63.9317 191.703 63.7293 191.742 63.534C191.781 63.3387 191.879 63.1594 192.022 63.0186L197.378 57.7416C197.57 57.5528 197.83 57.4468 198.101 57.4468C198.372 57.4468 198.632 57.5528 198.823 57.7416C199.015 57.9304 199.123 58.1864 199.123 58.4534C199.123 58.7204 199.015 58.9764 198.823 59.1652L193.467 64.4421C193.372 64.5359 193.26 64.6102 193.136 64.6609C193.012 64.7115 192.879 64.7374 192.744 64.737ZM198.101 57.8498C198.02 57.8496 197.941 57.8652 197.866 57.8955C197.792 57.9258 197.724 57.9702 197.667 58.0264L192.311 63.3033C192.196 63.4166 192.131 63.5702 192.131 63.7304C192.131 63.8906 192.196 64.0442 192.311 64.1575C192.426 64.2707 192.582 64.3344 192.744 64.3344C192.907 64.3344 193.063 64.2707 193.178 64.1575L198.534 58.8805C198.62 58.7961 198.679 58.6885 198.702 58.5714C198.726 58.4542 198.714 58.3328 198.667 58.2224C198.621 58.112 198.542 58.0177 198.442 57.9514C198.341 57.885 198.222 57.8497 198.101 57.8498ZM204.198 72.0874C204.157 72.0874 204.116 72.0844 204.076 72.0784L195.161 70.7591C194.948 70.7265 194.756 70.6118 194.628 70.4403C194.5 70.2688 194.446 70.0543 194.478 69.8438C194.511 69.6333 194.626 69.4438 194.799 69.3169C194.973 69.19 195.19 69.1359 195.404 69.1664L204.319 70.4857C204.523 70.5157 204.708 70.6206 204.836 70.7794C204.965 70.9381 205.028 71.1389 205.013 71.3416C204.998 71.5442 204.905 71.7337 204.754 71.872C204.603 72.0103 204.404 72.0872 204.198 72.0873V72.0874Z" fill="#262F5F"/>
<path d="M204.198 72.2888C204.147 72.2888 204.096 72.285 204.046 72.2775L195.131 70.9582C194.998 70.9386 194.871 70.8934 194.756 70.8252C194.641 70.7571 194.541 70.6673 194.461 70.5609C194.381 70.4546 194.324 70.3339 194.291 70.2056C194.259 70.0773 194.253 69.944 194.272 69.8133C194.292 69.6825 194.338 69.557 194.407 69.4437C194.477 69.3305 194.568 69.2317 194.676 69.1532C194.784 69.0746 194.906 69.0178 195.036 68.9859C195.167 68.954 195.302 68.9477 195.435 68.9673L204.349 70.2866C204.604 70.3241 204.835 70.4553 204.996 70.6537C205.157 70.8522 205.236 71.1033 205.217 71.3566C205.198 71.61 205.082 71.8469 204.893 72.0198C204.704 72.1926 204.456 72.2887 204.198 72.2888ZM195.283 69.3588C195.128 69.3587 194.979 69.4163 194.865 69.52C194.752 69.6237 194.682 69.7658 194.671 69.9179C194.659 70.0699 194.707 70.2207 194.803 70.3398C194.9 70.4589 195.039 70.5376 195.192 70.5601L204.106 71.8793C204.186 71.8912 204.267 71.8875 204.345 71.8684C204.423 71.8493 204.497 71.8152 204.562 71.7681C204.626 71.7209 204.681 71.6616 204.723 71.5937C204.764 71.5257 204.792 71.4503 204.803 71.3718C204.827 71.2134 204.787 71.0522 204.69 70.9234C204.593 70.7946 204.449 70.7088 204.288 70.6848L195.374 69.3655C195.344 69.3611 195.313 69.3588 195.283 69.3588ZM186.417 62.035C186.222 62.0347 186.033 61.9654 185.884 61.8395C185.736 61.7137 185.639 61.5397 185.61 61.3492L184.271 52.567C184.254 52.4623 184.259 52.3554 184.285 52.2525C184.311 52.1496 184.357 52.0527 184.42 51.9674C184.484 51.8821 184.564 51.81 184.657 51.7553C184.749 51.7006 184.851 51.6643 184.957 51.6486C185.064 51.6328 185.172 51.6379 185.276 51.6636C185.381 51.6892 185.479 51.7349 185.565 51.798C185.652 51.8611 185.725 51.9404 185.78 52.0313C185.835 52.1222 185.872 52.2229 185.887 52.3278L187.226 61.1099C187.244 61.2246 187.236 61.3416 187.203 61.453C187.171 61.5643 187.114 61.6674 187.037 61.7552C186.96 61.8431 186.865 61.9135 186.758 61.9618C186.651 62.01 186.535 62.035 186.417 62.035Z" fill="#262F5F"/>
<path d="M186.417 62.2362C186.173 62.2347 185.937 62.1477 185.752 61.9906C185.567 61.8335 185.445 61.6167 185.408 61.3789L184.069 52.5968C184.028 52.3328 184.096 52.0638 184.257 51.8491C184.418 51.6344 184.659 51.4915 184.927 51.4518C185.195 51.4122 185.468 51.479 185.686 51.6377C185.904 51.7963 186.049 52.0338 186.089 52.2978L187.429 61.0799C187.448 61.2106 187.442 61.3439 187.41 61.4722C187.377 61.6005 187.32 61.7213 187.24 61.8276C187.16 61.9339 187.06 62.0237 186.945 62.0919C186.83 62.1601 186.703 62.2053 186.57 62.2249C186.519 62.2324 186.468 62.2361 186.417 62.2362ZM185.08 51.8432C185.049 51.8432 185.018 51.8455 184.988 51.85C184.908 51.8617 184.832 51.8888 184.763 51.9297C184.694 51.9706 184.634 52.0245 184.586 52.0883C184.538 52.1521 184.503 52.2246 184.484 52.3015C184.465 52.3785 184.461 52.4585 184.473 52.5369L185.812 61.3191C185.824 61.3976 185.851 61.473 185.893 61.541C185.934 61.609 185.989 61.6683 186.054 61.7154C186.118 61.7626 186.192 61.7967 186.27 61.8158C186.348 61.8349 186.43 61.8386 186.509 61.8267C186.589 61.8149 186.665 61.7878 186.734 61.7469C186.803 61.706 186.863 61.6521 186.911 61.5883C186.959 61.5245 186.994 61.4521 187.013 61.3751C187.032 61.2982 187.036 61.2182 187.024 61.1398L185.685 52.3576C185.663 52.2148 185.59 52.0844 185.479 51.9901C185.368 51.8957 185.227 51.8436 185.08 51.8432Z" fill="#262F5F"/>
</svg>
