<svg width="40" height="40" viewBox="0 0 40 40" fill="none" xmlns="http://www.w3.org/2000/svg">
<rect x="0.5" y="0.5" width="39" height="39" rx="5.5" stroke="white"/>
<path fill-rule="evenodd" clip-rule="evenodd" d="M18.0892 12.4192C19.0392 11.5103 20.3277 10.9998 21.6712 10.9998H24.2765C24.6762 10.9998 25.0002 11.3097 25.0002 11.6921V15.0151C25.0002 15.3975 24.6762 15.7074 24.2765 15.7074H21.6712C21.6328 15.7074 21.5961 15.722 21.5689 15.748C21.5417 15.774 21.5265 15.8092 21.5265 15.8459V17.6459H24.2765C24.4994 17.6459 24.7097 17.7441 24.847 17.9122C24.9841 18.0802 25.0326 18.2993 24.9786 18.5061L24.1101 21.8292C24.0296 22.1374 23.7402 22.3536 23.4081 22.3536H21.5265V28.3074C21.5265 28.6898 21.2025 28.9998 20.8028 28.9998H17.3291C16.9295 28.9998 16.6054 28.6898 16.6054 28.3074V22.3536H14.7239C14.3242 22.3536 14.0002 22.0436 14.0002 21.6613V18.3382C14.0002 17.9559 14.3242 17.6459 14.7239 17.6459H16.6054V15.8459C16.6054 14.5606 17.1392 13.328 18.0892 12.4192ZM21.6712 12.3844C20.7115 12.3844 19.7912 12.7491 19.1126 13.3982C18.4341 14.0474 18.0528 14.9279 18.0528 15.8459V18.3382C18.0528 18.7206 17.7288 19.0305 17.3291 19.0305H15.4476V20.969H17.3291C17.7288 20.969 18.0528 21.279 18.0528 21.6613V27.6151H20.0791V21.6613C20.0791 21.279 20.4031 20.969 20.8028 20.969H22.843L23.3496 19.0305H20.8028C20.4031 19.0305 20.0791 18.7206 20.0791 18.3382V15.8459C20.0791 15.442 20.2468 15.0546 20.5455 14.7689C20.844 14.4833 21.249 14.3228 21.6712 14.3228H23.5528V12.3844H21.6712Z" fill="white" stroke="white" stroke-width="0.2"/>
</svg>
