<svg width="415" height="249" viewBox="0 0 415 249" fill="none" xmlns="http://www.w3.org/2000/svg">
<path d="M17.3125 105.232L32.181 247.867" stroke="#263238" stroke-width="2" stroke-miterlimit="10"/>
<path d="M29.445 220.002L23.043 213.446" stroke="#263238" stroke-width="2" stroke-miterlimit="10"/>
<path d="M25.0714 215.58C25.0586 214.488 24.8125 213.413 24.3497 212.425C23.8869 211.437 23.2182 210.559 22.3884 209.851C20.6593 208.308 11.5444 204.474 10.6799 207.681C9.76317 211.172 19.1091 218.033 25.0714 215.58Z" fill="#A7E565" stroke="#263238" stroke-miterlimit="10"/>
<path d="M25.0931 215.579L16.418 210.172" stroke="#263238" stroke-width="0.5" stroke-miterlimit="10"/>
<path d="M30.6782 236.15L24.7383 229.661" stroke="#263238" stroke-width="2" stroke-miterlimit="10"/>
<path d="M26.7855 231.802C26.7727 230.711 26.5266 229.635 26.0638 228.647C25.601 227.659 24.9322 226.781 24.1024 226.074C22.3734 224.53 13.2585 220.696 12.3939 223.903C11.4549 227.394 20.7784 234.255 26.7855 231.802Z" fill="#A7E565" stroke="#263238" stroke-miterlimit="10"/>
<path d="M26.7845 231.802L18.1094 226.394" stroke="#263238" stroke-width="0.5" stroke-miterlimit="10"/>
<path d="M25.3542 180.376L18.6094 173.245" stroke="#263238" stroke-width="2" stroke-miterlimit="10"/>
<path d="M20.9652 175.998C20.9523 174.906 20.7063 173.831 20.2435 172.843C19.7807 171.855 19.1119 170.977 18.2821 170.269C16.5531 168.726 7.43816 164.892 6.57362 168.099C5.63456 171.59 14.9581 178.451 20.9652 175.998Z" fill="#A7E565" stroke="#263238" stroke-miterlimit="10"/>
<path d="M20.9642 175.998L12.2891 170.59" stroke="#263238" stroke-width="0.5" stroke-miterlimit="10"/>
<path d="M26.6835 196.635L20.6094 190.079" stroke="#263238" stroke-width="2" stroke-miterlimit="10"/>
<path d="M22.6566 192.22C22.6438 191.129 22.3977 190.053 21.9349 189.065C21.4721 188.077 20.8033 187.199 19.9735 186.492C18.2445 184.948 9.12956 181.114 8.26503 184.321C7.32596 187.812 16.6495 194.674 22.6566 192.22Z" fill="#A7E565" stroke="#263238" stroke-miterlimit="10"/>
<path d="M22.6556 192.22L13.9805 186.812" stroke="#263238" stroke-width="0.5" stroke-miterlimit="10"/>
<path d="M22.6853 154.04L16.1641 147.506" stroke="#263238" stroke-width="2" stroke-miterlimit="10"/>
<path d="M18.2155 149.647C18.2027 148.556 17.9566 147.48 17.4938 146.492C17.0311 145.504 16.3623 144.627 15.5325 143.919C13.8034 142.375 4.69597 138.541 3.83143 141.748C2.89237 145.239 12.2159 152.101 18.2155 149.647Z" fill="#A7E565" stroke="#263238" stroke-miterlimit="10"/>
<path d="M18.2146 149.647L9.54688 144.24" stroke="#263238" stroke-width="0.5" stroke-miterlimit="10"/>
<path d="M19.611 127.592L13.4102 121.044" stroke="#263238" stroke-width="2" stroke-miterlimit="10"/>
<path d="M15.4575 123.177C15.4441 122.087 15.1978 121.013 14.735 120.026C14.2722 119.039 13.6037 118.163 12.7745 117.456C11.0454 115.92 1.9678 112.071 1.066 115.286C0.126934 118.776 9.4207 125.616 15.4575 123.177Z" fill="#A7E565" stroke="#263238" stroke-miterlimit="10"/>
<path d="M15.4564 123.177L6.78125 117.77" stroke="#263238" stroke-width="0.5" stroke-miterlimit="10"/>
<path d="M28.6562 210.97L33.7838 202.609" stroke="#263238" stroke-width="2" stroke-miterlimit="10"/>
<path d="M32.217 205.115C32.0042 204.046 32.0231 202.943 32.2726 201.882C32.522 200.82 32.9961 199.825 33.6629 198.962C35.0342 197.09 43.1579 191.459 44.6634 194.42C46.303 197.642 38.5967 206.279 32.217 205.115Z" fill="#A7E565" stroke="#263238" stroke-miterlimit="10"/>
<path d="M32.2188 205.115L40.0219 197.649" stroke="#263238" stroke-width="0.5" stroke-miterlimit="10"/>
<path d="M24.1992 168.285L29.3268 159.917" stroke="#263238" stroke-width="2" stroke-miterlimit="10"/>
<path d="M27.7613 162.431C27.5509 161.361 27.5711 160.259 27.8204 159.198C28.0698 158.137 28.5425 157.141 29.2072 156.277C30.586 154.405 38.7022 148.774 40.2151 151.735C41.8547 154.957 34.1484 163.594 27.7613 162.431Z" fill="#A7E565" stroke="#263238" stroke-miterlimit="10"/>
<path d="M27.7617 162.431L35.5724 154.965" stroke="#263238" stroke-width="0.5" stroke-miterlimit="10"/>
<path d="M22.25 149.528L27.3776 141.159" stroke="#263238" stroke-width="2" stroke-miterlimit="10"/>
<path d="M25.8193 143.673C25.6099 142.608 25.6299 141.512 25.8779 140.456C26.126 139.4 26.5964 138.409 27.2577 137.549C28.629 135.677 36.7527 130.039 38.2582 133.007C39.8978 136.199 32.1915 144.836 25.8193 143.673Z" fill="#A7E565" stroke="#263238" stroke-miterlimit="10"/>
<path d="M25.8086 143.673L33.6192 136.207" stroke="#263238" stroke-width="0.5" stroke-miterlimit="10"/>
<path d="M19.3789 122.028L24.5065 113.66" stroke="#263238" stroke-width="2" stroke-miterlimit="10"/>
<path d="M22.9371 116.173C22.7267 115.104 22.7469 114.002 22.9962 112.941C23.2455 111.879 23.7183 110.884 24.383 110.02C25.7543 108.148 33.8779 102.51 35.3909 105.471C37.0305 108.7 29.3168 117.329 22.9371 116.173Z" fill="#A7E565" stroke="#263238" stroke-miterlimit="10"/>
<path d="M22.9414 116.173L30.752 108.7" stroke="#263238" stroke-width="0.5" stroke-miterlimit="10"/>
<path d="M17.1858 104.441C16.9729 103.372 16.9919 102.269 17.2413 101.208C17.4907 100.146 17.9648 99.1505 18.6316 98.2881C20.003 96.416 28.1266 90.7849 29.6321 93.7459C31.2717 96.9679 23.5803 105.605 17.1858 104.441Z" fill="#A7E565" stroke="#263238" stroke-miterlimit="10"/>
<path d="M17.1875 104.441L24.9981 96.9753" stroke="#263238" stroke-width="0.5" stroke-miterlimit="10"/>
<path d="M17.616 104.732C16.5313 104.832 15.438 104.697 14.4095 104.338C13.381 103.979 12.4413 103.404 11.6537 102.651C9.93954 101.085 5.19204 92.4108 8.29245 91.2249C11.6537 89.957 19.4569 98.5342 17.616 104.732Z" fill="#A7E565" stroke="#263238" stroke-miterlimit="10"/>
<path d="M17.6423 104.762L11.0391 96.2146" stroke="#263238" stroke-width="0.5" stroke-miterlimit="10"/>
<path d="M56.5435 125.176L44.4102 247.867" stroke="#263238" stroke-width="2" stroke-miterlimit="10"/>
<path d="M45.0218 240.61L39.8867 232.242" stroke="#263238" stroke-width="2" stroke-miterlimit="10"/>
<path d="M41.4694 234.755C41.6822 233.686 41.6633 232.583 41.4139 231.521C41.1644 230.46 40.6903 229.464 40.0235 228.602C38.6298 226.73 30.5062 221.084 29.0007 224.067C27.3611 227.289 35.0748 235.919 41.4694 234.755Z" fill="#A7E565" stroke="#263238" stroke-miterlimit="10"/>
<path d="M41.449 234.755L34.0781 227.677" stroke="#263238" stroke-width="0.5" stroke-miterlimit="10"/>
<path d="M49.1311 201.021L43.9961 192.66" stroke="#263238" stroke-width="2" stroke-miterlimit="10"/>
<path d="M45.56 195.173C45.7705 194.102 45.7504 192.999 45.5011 191.937C45.2518 190.874 44.7789 189.878 44.1141 189.013C42.7353 187.148 34.6117 181.517 33.1062 184.478C31.4665 187.7 39.1803 196.337 45.56 195.173Z" fill="#A7E565" stroke="#263238" stroke-miterlimit="10"/>
<path d="M45.5623 195.173L38.1914 188.088" stroke="#263238" stroke-width="0.5" stroke-miterlimit="10"/>
<path d="M47.4436 217.243L42.3086 208.882" stroke="#263238" stroke-width="2" stroke-miterlimit="10"/>
<path d="M43.8764 211.388C44.0893 210.317 44.0705 209.213 43.8211 208.151C43.5716 207.088 43.0975 206.091 42.4305 205.227C41.0517 203.363 32.9281 197.731 31.4226 200.692C29.7829 203.929 37.4967 212.559 43.8764 211.388Z" fill="#A7E565" stroke="#263238" stroke-miterlimit="10"/>
<path d="M43.8709 211.395L36.5 204.31" stroke="#263238" stroke-width="0.5" stroke-miterlimit="10"/>
<path d="M51.8581 174.67L46.7305 166.309" stroke="#263238" stroke-width="2" stroke-miterlimit="10"/>
<path d="M48.2929 168.815C48.4981 167.742 48.4712 166.638 48.2141 165.577C47.9569 164.515 47.4756 163.521 46.8023 162.662C45.431 160.79 37.2999 155.166 35.7944 158.127C34.1995 161.349 41.9058 169.986 48.2929 168.815Z" fill="#A7E565" stroke="#263238" stroke-miterlimit="10"/>
<path d="M48.2963 168.815L40.918 161.737" stroke="#263238" stroke-width="0.5" stroke-miterlimit="10"/>
<path d="M54.6002 148.2L49.4727 139.839" stroke="#263238" stroke-width="2" stroke-miterlimit="10"/>
<path d="M51.0371 142.353C51.2423 141.28 51.2154 140.176 50.9583 139.114C50.7012 138.053 50.2198 137.059 49.5465 136.199C48.1752 134.327 40.0516 128.696 38.5461 131.657C36.9437 134.887 44.6574 143.516 51.0371 142.353Z" fill="#A7E565" stroke="#263238" stroke-miterlimit="10"/>
<path d="M51.0385 142.352L43.6602 135.274" stroke="#263238" stroke-width="0.5" stroke-miterlimit="10"/>
<path d="M45.8867 230.981L52.6241 223.851" stroke="#263238" stroke-width="2" stroke-miterlimit="10"/>
<path d="M50.5781 225.984C50.5915 224.894 50.8379 223.82 51.3007 222.833C51.7635 221.846 52.4319 220.97 53.2612 220.263C54.9902 218.712 64.0977 214.871 64.9622 218.086C65.9087 221.576 56.5852 228.438 50.5781 225.984Z" fill="#A7E565" stroke="#263238" stroke-miterlimit="10"/>
<path d="M50.5781 225.984L59.7601 220.286" stroke="#263238" stroke-width="0.5" stroke-miterlimit="10"/>
<path d="M50.3125 188.289L57.0499 181.159" stroke="#263238" stroke-width="2" stroke-miterlimit="10"/>
<path d="M55.0039 183.299C55.0167 182.208 55.2628 181.133 55.7256 180.145C56.1884 179.157 56.8571 178.279 57.6869 177.571C59.416 176.027 68.5235 172.186 69.388 175.393C70.3345 178.884 61.0109 185.746 55.0039 183.299Z" fill="#A7E565" stroke="#263238" stroke-miterlimit="10"/>
<path d="M55.0039 183.299L64.1859 177.601" stroke="#263238" stroke-width="0.5" stroke-miterlimit="10"/>
<path d="M52.2617 169.531L58.9991 162.401" stroke="#263238" stroke-width="2" stroke-miterlimit="10"/>
<path d="M56.9492 164.534C56.9626 163.444 57.209 162.37 57.6718 161.383C58.1346 160.396 58.803 159.52 59.6323 158.813C61.3613 157.262 70.4688 153.421 71.3333 156.635C72.2798 160.126 62.9563 166.988 56.9492 164.534Z" fill="#A7E565" stroke="#263238" stroke-miterlimit="10"/>
<path d="M56.9492 164.534L66.1312 158.836" stroke="#263238" stroke-width="0.5" stroke-miterlimit="10"/>
<path d="M55.1055 142.032L61.8503 134.902" stroke="#263238" stroke-width="2" stroke-miterlimit="10"/>
<path d="M59.8008 137.035C59.8136 135.944 60.0597 134.868 60.5225 133.88C60.9852 132.892 61.654 132.014 62.4838 131.307C64.2129 129.763 73.3203 125.922 74.1849 129.129C75.1239 132.619 65.8078 139.488 59.8008 137.035Z" fill="#A7E565" stroke="#263238" stroke-miterlimit="10"/>
<path d="M59.8008 137.035L68.9753 131.336" stroke="#263238" stroke-width="0.5" stroke-miterlimit="10"/>
<path d="M56.582 124.37C56.595 123.28 56.8411 122.206 57.3039 121.219C57.7667 120.232 58.4355 119.356 59.2651 118.65C60.9942 117.098 70.1016 113.257 70.9661 116.464C71.9052 119.962 62.5891 126.824 56.582 124.37Z" fill="#A7E565" stroke="#263238" stroke-miterlimit="10"/>
<path d="M56.582 124.37L65.7565 118.672" stroke="#263238" stroke-width="0.5" stroke-miterlimit="10"/>
<path d="M56.9558 124.78C55.874 124.655 54.8318 124.298 53.8996 123.734C52.9674 123.171 52.167 122.413 51.5524 121.514C50.196 119.627 47.3341 110.162 50.6133 109.64C54.1833 109.066 60.0263 119.06 56.9558 124.78Z" fill="#A7E565" stroke="#263238" stroke-miterlimit="10"/>
<path d="M56.957 124.78L52.2617 115.047" stroke="#263238" stroke-width="0.5" stroke-miterlimit="10"/>
<path d="M39.5898 67.4922V247.867" stroke="#263238" stroke-width="2" stroke-miterlimit="10"/>
<path d="M39.7393 220.748L33.7695 212.954" stroke="#263238" stroke-width="2" stroke-miterlimit="10"/>
<path d="M35.5898 215.296C35.6872 214.211 35.5521 213.117 35.1936 212.088C34.835 211.059 34.2612 210.119 33.5104 209.329C31.9527 207.606 23.285 202.848 22.0926 205.951C20.7957 209.322 29.3591 217.109 35.5898 215.296Z" fill="#A7E565" stroke="#263238" stroke-miterlimit="10"/>
<path d="M35.5875 215.296L27.5234 209.016" stroke="#263238" stroke-width="0.5" stroke-miterlimit="10"/>
<path d="M39.7393 186.85L33.7695 179.056" stroke="#263238" stroke-width="2" stroke-miterlimit="10"/>
<path d="M35.5898 181.397C35.6872 180.312 35.5521 179.218 35.1936 178.19C34.835 177.161 34.2612 176.22 33.5104 175.431C31.9527 173.715 23.285 168.949 22.0926 172.052C20.7957 175.423 29.3591 183.21 35.5898 181.397Z" fill="#A7E565" stroke="#263238" stroke-miterlimit="10"/>
<path d="M35.5875 181.397L27.5234 175.117" stroke="#263238" stroke-width="0.5" stroke-miterlimit="10"/>
<path d="M39.7393 147.051L33.7695 139.257" stroke="#263238" stroke-width="2" stroke-miterlimit="10"/>
<path d="M35.5898 141.599C35.6872 140.514 35.5521 139.42 35.1936 138.391C34.835 137.362 34.2612 136.422 33.5104 135.632C31.9527 133.917 23.285 129.151 22.0926 132.261C20.7957 135.625 29.3591 143.412 35.5898 141.599Z" fill="#A7E565" stroke="#263238" stroke-miterlimit="10"/>
<path d="M35.5875 141.599L27.5234 135.319" stroke="#263238" stroke-width="0.5" stroke-miterlimit="10"/>
<path d="M39.7393 120.559L33.7695 112.765" stroke="#263238" stroke-width="2" stroke-miterlimit="10"/>
<path d="M35.5898 115.107C35.6872 114.021 35.5521 112.928 35.1936 111.899C34.835 110.87 34.2612 109.929 33.5104 109.14C31.9527 107.425 23.285 102.659 22.0926 105.761C20.7957 109.133 29.3591 116.919 35.5898 115.107Z" fill="#A7E565" stroke="#263238" stroke-miterlimit="10"/>
<path d="M35.5875 115.107L27.5234 108.827" stroke="#263238" stroke-width="0.5" stroke-miterlimit="10"/>
<path d="M39.7393 93.9472L33.7695 86.1606" stroke="#263238" stroke-width="2" stroke-miterlimit="10"/>
<path d="M35.5898 88.4951C35.6872 87.4098 35.5521 86.3161 35.1936 85.2872C34.835 84.2582 34.2612 83.3177 33.5104 82.5284C31.9527 80.8129 23.285 76.0544 22.0926 79.1572C20.7957 82.5209 29.3591 90.315 35.5898 88.4951Z" fill="#A7E565" stroke="#263238" stroke-miterlimit="10"/>
<path d="M35.5875 88.4951L27.5234 82.2151" stroke="#263238" stroke-width="0.5" stroke-miterlimit="10"/>
<path d="M39.6016 231.093L45.5713 223.307" stroke="#263238" stroke-width="2" stroke-miterlimit="10"/>
<path d="M43.7554 225.641C43.6545 224.556 43.7873 223.462 44.1447 222.433C44.5021 221.403 45.0759 220.463 45.8273 219.674C47.3924 217.951 56.0527 213.193 57.2452 216.296C58.542 219.674 49.9786 227.461 43.7554 225.641Z" fill="#A7E565" stroke="#263238" stroke-miterlimit="10"/>
<path d="M43.7539 225.641L52.2949 219.025" stroke="#263238" stroke-width="0.5" stroke-miterlimit="10"/>
<path d="M39.6016 177.183L45.5713 169.397" stroke="#263238" stroke-width="2" stroke-miterlimit="10"/>
<path d="M43.7549 171.731C43.655 170.646 43.7882 169.553 44.1455 168.524C44.5029 167.494 45.0761 166.554 45.8268 165.765C47.3919 164.049 56.0521 159.291 57.2446 162.393C58.5414 165.757 49.978 173.551 43.7549 171.731Z" fill="#A7E565" stroke="#263238" stroke-miterlimit="10"/>
<path d="M43.7539 171.731L52.2949 165.116" stroke="#263238" stroke-width="0.5" stroke-miterlimit="10"/>
<path d="M39.6016 150.572L45.5713 142.785" stroke="#263238" stroke-width="2" stroke-miterlimit="10"/>
<path d="M43.7554 145.12C43.6545 144.035 43.7873 142.941 44.1447 141.911C44.5021 140.882 45.0759 139.941 45.8273 139.153C47.3924 137.43 56.0527 132.671 57.2452 135.774C58.542 139.153 49.9786 146.939 43.7554 145.12Z" fill="#A7E565" stroke="#263238" stroke-miterlimit="10"/>
<path d="M43.7539 145.12L52.2949 138.504" stroke="#263238" stroke-width="0.5" stroke-miterlimit="10"/>
<path d="M39.6016 115.405L45.5713 107.619" stroke="#263238" stroke-width="2" stroke-miterlimit="10"/>
<path d="M43.7549 109.953C43.655 108.868 43.7882 107.774 44.1455 106.745C44.5029 105.716 45.0761 104.775 45.8268 103.986C47.3919 102.271 56.0521 97.5124 57.2446 100.615C58.5414 103.986 49.978 111.773 43.7549 109.953Z" fill="#A7E565" stroke="#263238" stroke-miterlimit="10"/>
<path d="M43.7539 109.953L52.2949 103.337" stroke="#263238" stroke-width="0.5" stroke-miterlimit="10"/>
<path d="M39.6016 87.7568L45.5713 79.9627" stroke="#263238" stroke-width="2" stroke-miterlimit="10"/>
<path d="M43.7549 82.3046C43.655 81.2197 43.7882 80.126 44.1455 79.0968C44.5029 78.0677 45.0761 77.127 45.8268 76.3378C47.3919 74.6224 56.0521 69.8565 57.2446 72.9592C58.5414 76.3304 49.978 84.117 43.7549 82.3046Z" fill="#A7E565" stroke="#263238" stroke-miterlimit="10"/>
<path d="M43.7539 82.3046L52.2949 75.6815" stroke="#263238" stroke-width="0.5" stroke-miterlimit="10"/>
<path d="M39.232 70.0355C39.1311 68.9505 39.2638 67.8565 39.6213 66.8272C39.9787 65.7979 40.5524 64.8573 41.3039 64.0687C42.869 62.3458 51.5293 57.5873 52.7217 60.69C54.0334 64.0687 45.4701 71.8553 39.232 70.0355Z" fill="#A7E565" stroke="#263238" stroke-miterlimit="10"/>
<path d="M39.2461 70.0355L47.7871 63.4198" stroke="#263238" stroke-width="0.5" stroke-miterlimit="10"/>
<path d="M39.6679 70.4233C38.5784 70.408 37.5047 70.1598 36.5189 69.6954C35.533 69.2311 34.6577 68.5612 33.9515 67.7308C32.4088 65.9929 28.5855 56.8787 31.7902 56.0135C35.2856 55.0589 42.1274 64.3968 39.6679 70.4233Z" fill="#A7E565" stroke="#263238" stroke-miterlimit="10"/>
<path d="M39.6635 70.4084L33.9844 61.2122" stroke="#263238" stroke-width="0.5" stroke-miterlimit="10"/>
<path d="M142.914 247.972C140.268 239.842 133.799 219.756 134.32 218.981C134.961 218.011 134.961 212.835 134.961 212.835C134.961 212.835 113.944 215.423 99.0756 202.803C84.207 190.184 66.417 175.304 66.417 175.304C66.417 175.304 63.8308 183.046 61.2446 191.161C59.0609 198 54.7904 236.307 53.5234 247.972H142.914Z" fill="#263238" stroke="#263238" stroke-linecap="round" stroke-linejoin="round"/>
<path d="M90.8984 225.432C94.6696 228.923 101.191 235.076 105.991 240.245" stroke="#6E6E6E" stroke-linecap="round" stroke-linejoin="round"/>
<path d="M87.875 222.658L89.0451 223.723" stroke="#6E6E6E" stroke-linecap="round" stroke-linejoin="round"/>
<path d="M161.254 86.0861C161.254 86.0861 139.148 95.3644 129.05 102.196C118.951 109.028 98.4929 128.957 92.4859 136.878C86.4788 144.799 71.7445 161.491 67.9286 166.093C64.1127 170.695 61.6532 173.469 62.7116 181.114C63.7699 188.759 70.3508 201.051 77.4459 207.331C84.5411 213.611 98.724 221.457 117.013 220.711C127.649 220.278 133.931 217.981 139.663 212.246C145.394 206.51 154.129 191.489 161.768 184.12C169.407 176.751 182.502 161.745 182.502 161.745C182.502 161.745 217.434 174.305 220.706 174.305C223.977 174.305 240.359 165.019 240.627 162.289C240.895 159.559 204.607 135.528 201.335 129.517C198.064 123.505 191.274 112.564 191.274 112.564C191.274 112.564 174.878 88.8084 161.254 86.0861Z" fill="#7D7D7D" stroke="#263238" stroke-linecap="round" stroke-linejoin="round"/>
<path d="M201.369 129.494C198.089 123.49 191.27 112.564 191.27 112.564C187.844 107.739 184.078 103.166 180.001 98.8773C178.652 99.0983 177.366 99.607 176.23 100.369C167.764 106.612 171.758 122.215 172.66 134.678C173.279 142.359 175.569 149.813 179.368 156.516L166.184 179.712C173.599 171.985 182.58 161.715 182.58 161.715C182.58 161.715 217.512 174.275 220.784 174.275C224.055 174.275 240.437 164.989 240.705 162.259C240.973 159.529 204.641 135.506 201.369 129.494Z" fill="#263238" stroke="#263238" stroke-linecap="round" stroke-linejoin="round"/>
<path d="M151.135 92.463C151.135 92.463 145.762 89.778 141.998 102.689C138.234 115.599 147.908 149.498 152.753 150.035C157.597 150.572 167.808 125.288 169.417 117.755C171.027 110.222 166.19 87.6225 151.135 92.463Z" fill="#4F4F4F" stroke="#263238" stroke-linecap="round" stroke-linejoin="round"/>
<path d="M167.797 120.484C167.797 120.484 165.01 122.856 160.978 125.944C156.342 129.494 155.485 136.102 152.213 132.276C148.942 128.45 144.06 101.644 147.064 96.1773C150.067 90.7103 161.224 83.3414 162.066 82.7969C162.908 82.2524 170.525 92.3586 171.077 99.7276C171.628 107.096 167.797 120.484 167.797 120.484Z" fill="white" stroke="#263238" stroke-linecap="round" stroke-linejoin="round"/>
<path d="M162.066 82.7969C161.254 83.3413 150.06 90.7177 147.064 96.1773C145.879 98.3254 145.923 103.785 146.602 109.841C147.675 110.572 148.837 111.35 150.089 112.176C160.203 118.851 167.798 120.484 167.798 120.484L168.357 91.2995C165.934 86.4441 162.595 82.4463 162.066 82.7969Z" fill="#263238" stroke="#263238" stroke-linecap="round" stroke-linejoin="round"/>
<path d="M210.651 89.8973L199.188 109.558C195.365 116.114 190.99 123.729 183.358 125.4C175.727 127.07 168.356 128.129 164.257 121.573C160.158 115.017 155.798 106.284 158.525 94.268C161.253 82.2524 165.896 78.7022 171.628 74.3316C177.359 69.9609 183.075 67.2311 189.626 69.6775C196.177 72.1239 210.651 89.8973 210.651 89.8973Z" fill="white" stroke="#263238" stroke-linecap="round" stroke-linejoin="round"/>
<path d="M187.451 96.6472C186.877 97.6615 185.916 98.206 185.312 97.8555C184.708 97.5049 184.678 96.4085 185.252 95.3942C185.826 94.3798 186.788 93.8428 187.399 94.1859C188.01 94.529 188.032 95.6328 187.451 96.6472Z" fill="#263238" stroke="#263238" stroke-linecap="round" stroke-linejoin="round"/>
<path d="M199.306 102.263C198.732 103.278 197.771 103.822 197.167 103.479C196.564 103.136 196.534 102.025 197.108 101.01C197.682 99.9961 198.643 99.4591 199.254 99.8022C199.865 100.145 199.888 101.257 199.306 102.263Z" fill="#263238" stroke="#263238" stroke-linecap="round" stroke-linejoin="round"/>
<path d="M184.121 88.4653C185.496 88.2184 186.907 88.2571 188.266 88.5792C189.625 88.9012 190.903 89.4997 192.021 90.3374" stroke="#263238" stroke-width="2" stroke-linecap="round" stroke-linejoin="round"/>
<path d="M199.109 94.3724C199.109 94.3724 204.662 94.6633 204.423 98.6983" stroke="#263238" stroke-width="2" stroke-linecap="round" stroke-linejoin="round"/>
<path d="M178.055 108.625C178.055 108.625 179.545 113.377 186.76 115.525" stroke="#263238" stroke-linecap="round" stroke-linejoin="round"/>
<path d="M197.343 98.0196L195.658 101.965C195.658 101.965 191.932 111.296 191.268 112.541C190.605 113.787 185.522 111.258 184.121 109.006" stroke="#263238" stroke-linecap="round" stroke-linejoin="round"/>
<path d="M165.616 87.712C165.616 87.712 166.436 87.712 168.597 86.3471C170.759 84.9822 173.241 87.4435 178.42 85.5267C183.6 83.6098 176.237 76.2409 183.332 75.6964C190.427 75.152 194.25 86.6231 202.978 90.7178C211.705 94.8124 217.719 93.179 221.535 83.3414C225.351 73.5037 219.903 67.7756 215.536 63.4124C211.168 59.0492 215.536 58.1915 214.172 51.3968C212.808 44.6022 205.974 41.8351 199.438 44.2964C192.901 46.7577 194.519 48.667 190.971 48.667C187.423 48.667 184.152 44.0204 174.329 45.9298C164.506 47.8392 156.867 58.2213 155.771 68.0515C154.675 77.8818 157.955 88.2565 159.319 88.8084C160.682 89.3603 165.616 87.712 165.616 87.712Z" fill="#263238" stroke="#263238" stroke-linecap="round" stroke-linejoin="round"/>
<path d="M165.629 91.307C165.629 91.307 168.327 82.9237 165.465 80.44C162.603 77.9564 157.856 79.545 156.879 83.2519C155.903 86.9587 154.36 93.6116 155.978 95.3122C157.595 97.0127 160.755 96.4981 160.755 96.4981" fill="white"/>
<path d="M165.629 91.307C165.629 91.307 168.327 82.9237 165.465 80.44C162.603 77.9564 157.856 79.545 156.879 83.2519C155.903 86.9587 154.36 93.6116 155.978 95.3122C157.595 97.0127 160.755 96.4981 160.755 96.4981" stroke="#263238" stroke-linecap="round" stroke-linejoin="round"/>
<path d="M256.118 247.972L244.387 204.839C243.522 201.654 241.633 198.842 239.012 196.837C236.39 194.833 233.183 193.748 229.884 193.749H182.953C179.204 193.748 175.591 195.149 172.82 197.677C170.05 200.204 168.324 203.677 167.98 207.413L164.254 247.972H256.118Z" fill="#263238" stroke="#263238" stroke-linecap="round" stroke-linejoin="round"/>
<path d="M222.652 159.552C222.652 159.552 187.445 175.393 185.813 177.027C184.18 178.66 174.074 247.972 174.074 247.972H295.512C295.512 247.972 276.678 174.842 274.226 173.208C271.774 171.575 239.57 158.187 238.75 158.187C237.931 158.187 222.652 159.552 222.652 159.552Z" fill="#7D7D7D" stroke="#263238" stroke-linecap="round" stroke-linejoin="round"/>
<path d="M265.056 162.535C265.056 162.535 268.537 162.699 269.17 163.646C269.804 164.594 271.406 170.456 270.75 171.851C270.095 173.245 268.693 172.007 267.769 170.269C266.845 168.532 266.025 166.786 266.025 166.786L264.281 165.518L265.056 162.535Z" fill="white" stroke="#263238" stroke-linecap="round" stroke-linejoin="round"/>
<path d="M260.587 159.052C260.587 159.052 265.021 159.529 265.655 161.111C266.288 162.692 266.124 166.816 265.491 169.188C264.857 171.56 263.754 173.148 262.8 172.358C261.846 171.567 259.953 163.169 259.953 162.222C259.953 161.275 260.11 159.052 260.587 159.052Z" fill="white" stroke="#263238" stroke-linecap="round" stroke-linejoin="round"/>
<path d="M257.426 156.837C257.426 156.837 261.54 157.948 262.33 159.074C263.12 160.201 263.12 166.361 262.33 168.733C261.54 171.105 259.64 171.716 258.686 171.112C257.732 170.508 256.793 166.518 256.793 164.616C256.793 162.714 257.426 156.837 257.426 156.837Z" fill="white" stroke="#263238" stroke-linecap="round" stroke-linejoin="round"/>
<path d="M252.195 156.151C252.195 156.151 256.376 154.54 257.658 156.151C258.939 157.762 258.298 169.979 257.337 171.269C256.376 172.559 253.476 171.269 253.476 169.658C253.476 168.047 252.388 163.654 252.388 163.654L247.402 161.625C247.402 161.625 249.944 156.151 252.195 156.151Z" fill="white" stroke="#263238" stroke-linecap="round" stroke-linejoin="round"/>
<path d="M252.36 163.646L251.891 159.85" stroke="#263238" stroke-linecap="round" stroke-linejoin="round"/>
<path d="M220.694 160.76C220.694 160.76 215.38 161.819 215.029 166.078C214.679 170.337 215.738 191.235 218.57 193.361C221.402 195.486 235.249 185.559 235.249 185.559C235.249 185.559 246.183 191.25 248.664 189.46C251.146 187.67 249.015 169.263 243.708 162.177C238.402 155.092 220.694 160.76 220.694 160.76Z" fill="white" stroke="#263238" stroke-linecap="round" stroke-linejoin="round"/>
<path d="M198.98 225.119L204.361 196.605" stroke="#263238" stroke-linecap="round" stroke-linejoin="round"/>
<path d="M265.109 191.22L271.564 214.595L267.263 247.181" stroke="#263238" stroke-linecap="round" stroke-linejoin="round"/>
<path d="M205.214 156.18C214.483 156.18 221.998 149.028 221.998 140.204C221.998 131.381 214.483 124.229 205.214 124.229C195.944 124.229 188.43 131.381 188.43 140.204C188.43 149.028 195.944 156.18 205.214 156.18Z" fill="#263238" stroke="#263238" stroke-linecap="round" stroke-linejoin="round"/>
<path d="M211.496 154.703C212.335 154.374 213.139 153.962 213.896 153.473" stroke="#6E6E6E" stroke-linecap="round" stroke-linejoin="round"/>
<path d="M190.527 132.888C190.527 132.888 186.562 143.628 193.099 150.863C197.697 155.964 204.032 156.546 208.839 155.464" stroke="#6E6E6E" stroke-linecap="round" stroke-linejoin="round"/>
<path d="M219.374 150.542C219.374 150.542 219.105 161.193 219.105 164.198C219.105 167.204 228.109 180.607 233.564 181.398C239.02 182.188 241.203 172.112 241.479 167.473C241.755 162.833 242.843 156.285 242.843 156.285C242.843 156.285 227.05 159.552 219.374 150.542Z" fill="white" stroke="#263238" stroke-linecap="round" stroke-linejoin="round"/>
<path d="M239.297 160.797L236.524 156.852C231.248 156.897 223.854 155.86 219.383 150.542C219.383 150.542 219.211 157.419 219.137 161.677C231.807 164.355 239.297 160.797 239.297 160.797Z" fill="#263238" stroke="#263238" stroke-linecap="round" stroke-linejoin="round"/>
<path d="M213.916 142.621C213.916 142.621 217.188 151.631 221.831 156.002C226.474 160.372 235.477 166.108 241.753 162.826C248.028 159.544 252.12 155.181 253.759 145.082C255.399 134.984 253.759 111.765 253.759 111.765C253.759 111.765 252.939 106.85 244.205 105.21C235.47 103.569 220.467 106.574 217.464 112.586C214.46 118.597 213.633 126.511 213.633 131.426C213.633 136.341 213.916 142.621 213.916 142.621Z" fill="white" stroke="#263238" stroke-linecap="round" stroke-linejoin="round"/>
<path d="M234.345 135.491C235.045 135.491 235.612 134.546 235.612 133.38C235.612 132.214 235.045 131.269 234.345 131.269C233.645 131.269 233.078 132.214 233.078 133.38C233.078 134.546 233.645 135.491 234.345 135.491Z" fill="#263238" stroke="#263238" stroke-linecap="round" stroke-linejoin="round"/>
<path d="M248.702 132.388C248.702 133.559 248.136 134.506 247.435 134.506C246.734 134.506 246.168 133.559 246.168 132.388C246.168 131.217 246.734 130.277 247.435 130.277C248.136 130.277 248.702 131.225 248.702 132.388Z" fill="#263238" stroke="#263238" stroke-linecap="round" stroke-linejoin="round"/>
<path d="M230.547 128.733C230.547 128.733 231.672 125.071 236.457 125.631" stroke="#263238" stroke-linecap="round" stroke-linejoin="round"/>
<path d="M244.617 125.616C244.617 125.616 247.434 121.678 251.37 126.742" stroke="#263238" stroke-linecap="round" stroke-linejoin="round"/>
<path d="M244.614 133.82C244.614 133.82 243.489 136.915 244.614 138.295C245.74 139.675 246.306 142.524 244.331 143.084C242.868 143.446 241.367 143.636 239.859 143.65" stroke="#263238" stroke-linecap="round" stroke-linejoin="round"/>
<path d="M233.363 148.439C233.363 148.439 237.023 151.825 244.334 150.132" stroke="#263238" stroke-linecap="round" stroke-linejoin="round"/>
<path d="M249.117 111.273L254.744 124.504C254.744 124.504 261.221 119.44 260.095 110.99C258.97 102.539 254.185 101.98 254.185 101.98L249.117 111.273Z" fill="#263238" stroke="#263238" stroke-linecap="round" stroke-linejoin="round"/>
<path d="M212.276 129.785C212.276 129.785 213.335 133.514 216.606 131.053C219.878 128.592 223.463 120.775 223.463 120.775C223.463 120.775 219.103 126.511 221.831 128.152C224.559 129.793 235.991 126.779 248.572 114.495C261.152 102.211 258.671 95.1033 252.664 90.1882C246.657 85.2731 233.018 93.1716 233.018 93.1716C233.018 93.1716 223.463 90.1882 211.464 97.2662C199.465 104.344 201.634 121.029 203.549 124.027C205.464 127.025 205.733 132.515 212.276 129.785Z" fill="#263238" stroke="#263238" stroke-linecap="round" stroke-linejoin="round"/>
<path d="M215.25 132.768C215.25 132.768 213.067 125.936 209.519 126.212C205.972 126.488 203.788 137.4 208.155 142.323C212.523 147.245 214.975 143.143 214.975 143.143" fill="white"/>
<path d="M215.25 132.768C215.25 132.768 213.067 125.936 209.519 126.212C205.972 126.488 203.788 137.4 208.155 142.323C212.523 147.245 214.975 143.143 214.975 143.143" stroke="#263238" stroke-linecap="round" stroke-linejoin="round"/>
<path d="M213.322 142.024C213.324 142.373 213.222 142.714 213.03 143.004C212.837 143.295 212.563 143.522 212.242 143.656C211.921 143.79 211.567 143.826 211.225 143.759C210.883 143.692 210.569 143.525 210.323 143.279C210.076 143.033 209.908 142.72 209.839 142.378C209.771 142.036 209.805 141.682 209.938 141.36C210.071 141.038 210.296 140.763 210.586 140.569C210.875 140.375 211.215 140.272 211.564 140.272C212.029 140.272 212.475 140.456 212.805 140.785C213.134 141.113 213.32 141.559 213.322 142.024Z" fill="#A7E565" stroke="#263238" stroke-linecap="round" stroke-linejoin="round"/>
<path d="M248.847 184.403L257.045 202.154C257.045 202.154 288.153 220.45 290.061 221.27C291.969 222.091 297.157 227.006 297.976 233.554C298.796 240.103 294.995 243.937 290.337 243.937C285.679 243.937 281.334 242.84 277.786 239.842C274.239 236.844 250.494 207.345 250.494 207.345C250.494 207.345 245.314 204.362 243.95 203.243C242.586 202.124 241.215 199.149 241.215 199.149C241.215 199.149 238.487 200.513 236.579 200.245C234.671 199.976 231.668 193.689 231.668 193.689C231.668 193.689 234.649 183.859 235.491 182.501C236.333 181.144 243.689 180.86 243.689 180.86L248.847 184.403Z" fill="white" stroke="#263238" stroke-linecap="round" stroke-linejoin="round"/>
<path d="M237.656 196.419L240.66 195.322L241.204 196.695V199.149" stroke="#263238" stroke-linecap="round" stroke-linejoin="round"/>
<path d="M220.469 199.454L227.288 178.698C227.288 178.698 235.203 175.714 237.387 175.147C239.571 174.58 246.114 180.368 247.486 180.607C248.857 180.846 249.662 184.157 248.85 184.433C248.037 184.709 245.302 183.337 245.302 183.337L237.104 184.709C237.104 184.709 234.652 197.538 231.924 200.543C229.685 202.8 227.214 204.815 224.553 206.555C224.553 206.555 198.088 238.238 196.18 241.222C194.272 244.205 185.001 249.687 178.442 245.861C171.884 242.035 175.461 232.756 177.354 229.452C179.247 226.148 220.469 199.454 220.469 199.454Z" fill="white" stroke="#263238" stroke-linecap="round" stroke-linejoin="round"/>
<path d="M247.484 180.577L240.463 179.056L235.484 180.167" stroke="#263238" stroke-linecap="round" stroke-linejoin="round"/>
<path d="M232.523 178.243L239.917 176.848L242.13 177.124" stroke="#263238" stroke-linecap="round" stroke-linejoin="round"/>
<path d="M134.892 105.784C134.892 105.784 139.811 118.896 138.991 132C138.172 145.105 142.263 187.983 143.359 192.622C144.454 197.262 145.811 205.19 145.811 205.19C145.811 205.19 188.65 225.939 196.297 228.945C201.91 231.046 207.65 232.79 213.483 234.166C213.483 234.166 229.581 228.699 231.221 227.334C232.861 225.969 236.952 227.879 236.952 227.879C236.952 227.879 245.687 230.34 246.231 231.16C246.775 231.981 246.499 242.9 246.499 242.9C246.499 242.9 247.595 245.883 246.775 246.182C245.955 246.48 236.952 248.635 233.949 247.815C230.945 246.995 223.038 243.444 223.038 243.444C223.038 243.444 217.031 245.63 214.027 245.085C211.024 244.541 207.208 243.72 207.208 243.72C207.208 243.72 156.454 235.516 142.807 232.249C129.161 228.982 120.709 227.066 119.346 222.15C117.982 217.235 104.06 156.882 103.516 153.607" fill="#7D7D7D"/>
<path d="M134.892 105.784C134.892 105.784 139.811 118.896 138.991 132C138.172 145.105 142.263 187.983 143.359 192.622C144.454 197.262 145.811 205.19 145.811 205.19C145.811 205.19 188.65 225.939 196.297 228.945C201.91 231.046 207.65 232.79 213.483 234.166C213.483 234.166 229.581 228.699 231.221 227.334C232.861 225.969 236.952 227.879 236.952 227.879C236.952 227.879 245.687 230.34 246.231 231.16C246.775 231.981 246.499 242.9 246.499 242.9C246.499 242.9 247.595 245.883 246.775 246.182C245.955 246.48 236.952 248.635 233.949 247.815C230.945 246.995 223.038 243.444 223.038 243.444C223.038 243.444 217.031 245.63 214.027 245.085C211.024 244.541 207.208 243.72 207.208 243.72C207.208 243.72 156.454 235.516 142.807 232.249C129.161 228.982 120.709 227.066 119.346 222.15C117.982 217.235 104.06 156.882 103.516 153.607" stroke="#263238" stroke-linecap="round" stroke-linejoin="round"/>
<path d="M226.412 237.276H243.45C245.09 237.276 246.664 237.928 247.824 239.089C248.984 240.25 249.636 241.825 249.636 243.467V247.942H220.227V243.467C220.227 241.825 220.878 240.25 222.038 239.089C223.198 237.928 224.772 237.276 226.412 237.276Z" fill="#263238" stroke="#263238" stroke-linecap="round" stroke-linejoin="round"/>
<path d="M233.948 247.785C236.929 248.606 245.954 246.42 246.774 246.152C247.594 245.883 246.499 242.87 246.499 242.87C246.499 242.87 246.774 231.951 246.23 231.13C245.686 230.31 236.951 227.849 236.951 227.849C236.951 227.849 232.86 225.939 231.22 227.304C229.58 228.669 213.482 234.136 213.482 234.136C207.649 232.76 201.909 231.016 196.296 228.915C193.59 227.856 186.495 224.574 178.446 220.778C168.169 223.538 167.341 232.51 167.595 236.978C186.227 240.274 207.207 243.69 207.207 243.69C207.207 243.69 211.03 244.511 214.026 245.055C217.022 245.6 223.037 243.414 223.037 243.414C223.037 243.414 230.952 246.965 233.948 247.785Z" fill="white" stroke="#263238" stroke-linecap="round" stroke-linejoin="round"/>
<path d="M236.68 230.586C236.68 230.586 241.323 236.046 242.955 238.231C244.587 240.416 246.503 242.87 246.503 242.87" stroke="#263238" stroke-linecap="round" stroke-linejoin="round"/>
<path d="M229.859 232.219C229.859 232.219 236.955 239.596 238.862 240.961C240.77 242.325 243.23 246.965 243.23 246.965" stroke="#263238" stroke-linecap="round" stroke-linejoin="round"/>
<path d="M224.129 236.866C224.129 236.866 233.132 243.414 234.228 244.235C235.479 245.347 236.664 246.533 237.775 247.785" stroke="#263238" stroke-linecap="round" stroke-linejoin="round"/>
<path d="M184.61 223.694C182.664 222.792 180.593 221.822 178.446 220.808C168.169 223.568 167.341 232.54 167.595 237.008L174.988 238.305C175.897 230.161 181.368 225.671 184.61 223.694Z" fill="#4F4F4F" stroke="#263238" stroke-linecap="round" stroke-linejoin="round"/>
<path d="M268.406 243.131H379.35V247.934H264.031V247.472C264.043 246.318 264.509 245.215 265.328 244.402C266.147 243.59 267.253 243.133 268.406 243.131Z" fill="#263238" stroke="#263238" stroke-linecap="round" stroke-linejoin="round"/>
<path d="M379.349 243.131H309.188V247.972H379.349V243.131Z" fill="white" stroke="#263238" stroke-linecap="round" stroke-linejoin="round"/>
<path d="M387.011 188.655H316.849L309.188 242.721H379.349L387.011 188.655Z" fill="white" stroke="#263238" stroke-linecap="round" stroke-linejoin="round"/>
<path d="M349.785 224.56C353.498 224.56 356.508 222.032 356.508 218.913C356.508 215.795 353.498 213.267 349.785 213.267C346.072 213.267 343.062 215.795 343.062 218.913C343.062 222.032 346.072 224.56 349.785 224.56Z" fill="white" stroke="#263238" stroke-linecap="round" stroke-linejoin="round"/>
<path d="M407.402 247.971H413.998" stroke="#263238" stroke-linecap="round" stroke-linejoin="round"/>
<path d="M7.92578 247.971H406.656" stroke="#263238" stroke-linecap="round" stroke-linejoin="round"/>
<path d="M338.314 34.0474C339.719 27.2757 335.372 20.6463 328.606 19.2403C321.839 17.8342 315.215 22.1839 313.81 28.9556C312.405 35.7273 316.751 42.3567 323.518 43.7627C330.284 45.1687 336.909 40.819 338.314 34.0474Z" fill="#A7E565" stroke="#263238" stroke-linecap="round" stroke-linejoin="round"/>
<path d="M325.688 30.0582V78.3069" stroke="#263238" stroke-linecap="round" stroke-linejoin="round"/>
<path d="M325.688 37.181L332.805 29.7972" stroke="#263238" stroke-linecap="round" stroke-linejoin="round"/>
<path d="M325.158 40.873L321.074 36.7857" stroke="#263238" stroke-linecap="round" stroke-linejoin="round"/>
<path d="M311.456 54.8956C315.714 53.1166 317.725 48.2201 315.947 43.9589C314.169 39.6977 309.276 37.6855 305.018 39.4645C300.76 41.2435 298.75 46.14 300.527 50.4012C302.305 54.6623 307.198 56.6745 311.456 54.8956Z" fill="#A7E565" stroke="#263238" stroke-linecap="round" stroke-linejoin="round"/>
<path d="M307.973 46.1983V78.4187" stroke="#263238" stroke-linecap="round" stroke-linejoin="round"/>
<path d="M307.973 50.9493L312.728 46.0193" stroke="#263238" stroke-linecap="round" stroke-linejoin="round"/>
<path d="M307.622 53.4106L304.895 50.6883" stroke="#263238" stroke-linecap="round" stroke-linejoin="round"/>
<path d="M388.698 48.7043C393.313 48.7043 397.053 44.961 397.053 40.3434C397.053 35.7258 393.313 31.9825 388.698 31.9825C384.084 31.9825 380.344 35.7258 380.344 40.3434C380.344 44.961 384.084 48.7043 388.698 48.7043Z" fill="#A7E565" stroke="#263238" stroke-linecap="round" stroke-linejoin="round"/>
<path d="M388.434 39.3738V71.6017" stroke="#263238" stroke-linecap="round" stroke-linejoin="round"/>
<path d="M388.434 44.1323L393.189 39.2023" stroke="#263238" stroke-linecap="round" stroke-linejoin="round"/>
<path d="M388.087 46.5936L385.359 43.8638" stroke="#263238" stroke-linecap="round" stroke-linejoin="round"/>
<path d="M394.035 60.4738H308.699V87.4211H394.035V60.4738Z" fill="white" stroke="#263238" stroke-linecap="round" stroke-linejoin="round"/>
<path d="M351.474 35.8832L308.926 60.4737H394.03L351.474 35.8832Z" fill="#A7E565" stroke="#263238" stroke-linecap="round" stroke-linejoin="round"/>
<path d="M368.657 58.281H347.543V87.4211H368.657V58.281Z" fill="white" stroke="#263238" stroke-linecap="round" stroke-linejoin="round"/>
<path d="M368.657 58.281H347.543V59.5182H368.657V58.281Z" fill="#263238" stroke="#263238" stroke-linecap="round" stroke-linejoin="round"/>
<path d="M363.366 87.4211H352.82V69.2076C352.82 67.8091 353.375 66.4678 354.364 65.4789C355.352 64.49 356.692 63.9345 358.09 63.9345C358.782 63.9335 359.468 64.0692 360.108 64.3337C360.748 64.5983 361.33 64.9866 361.82 65.4763C362.31 65.9661 362.699 66.5477 362.964 67.1879C363.23 67.8282 363.366 68.5145 363.366 69.2076V87.4211Z" fill="#263238" stroke="#263238" stroke-linecap="round" stroke-linejoin="round"/>
<path d="M351.484 65.1949H302.57V87.4211H351.484V65.1949Z" fill="white" stroke="#263238" stroke-linecap="round" stroke-linejoin="round"/>
<path d="M351.484 65.1949H302.57V66.1862H351.484V65.1949Z" fill="#263238" stroke="#263238" stroke-linecap="round" stroke-linejoin="round"/>
<path d="M346.105 67.0297H307.953V87.421H346.105V67.0297Z" fill="#E9DFCA" stroke="#263238" stroke-linecap="round" stroke-linejoin="round"/>
<path d="M327.029 48.9355L301.07 63.9345H352.987L327.029 48.9355Z" fill="#E9DFCA" stroke="#263238" stroke-linecap="round" stroke-linejoin="round"/>
<path d="M352.987 63.9345H301.07V65.194H352.987V63.9345Z" fill="white" stroke="#263238" stroke-linecap="round" stroke-linejoin="round"/>
<path d="M358.093 49.8231L344.648 57.5948H371.539L358.093 49.8231Z" fill="#A7E565" stroke="#263238" stroke-linecap="round" stroke-linejoin="round"/>
<path d="M371.546 57.5948H344.656V58.8395H371.546V57.5948Z" fill="white" stroke="#263238" stroke-linecap="round" stroke-linejoin="round"/>
<path d="M312.437 68.6631H309.344V71.7584H312.437V68.6631Z" fill="white" stroke="#263238" stroke-width="0.5" stroke-linecap="round" stroke-linejoin="round"/>
<path d="M317.073 68.6631H313.98V71.7584H317.073V68.6631Z" fill="white" stroke="#263238" stroke-width="0.5" stroke-linecap="round" stroke-linejoin="round"/>
<path d="M321.702 68.6631H318.609V71.7584H321.702V68.6631Z" fill="white" stroke="#263238" stroke-width="0.5" stroke-linecap="round" stroke-linejoin="round"/>
<path d="M326.339 68.6631H323.246V71.7584H326.339V68.6631Z" fill="white" stroke="#263238" stroke-width="0.5" stroke-linecap="round" stroke-linejoin="round"/>
<path d="M330.972 68.6631H327.879V71.7584H330.972V68.6631Z" fill="white" stroke="#263238" stroke-width="0.5" stroke-linecap="round" stroke-linejoin="round"/>
<path d="M335.609 68.6631H332.516V71.7584H335.609V68.6631Z" fill="white" stroke="#263238" stroke-width="0.5" stroke-linecap="round" stroke-linejoin="round"/>
<path d="M340.234 68.6631H337.141V71.7584H340.234V68.6631Z" fill="white" stroke="#263238" stroke-width="0.5" stroke-linecap="round" stroke-linejoin="round"/>
<path d="M344.87 68.6631H341.777V71.7584H344.87V68.6631Z" fill="white" stroke="#263238" stroke-width="0.5" stroke-linecap="round" stroke-linejoin="round"/>
<path d="M312.437 73.2127H309.344V76.308H312.437V73.2127Z" fill="white" stroke="#263238" stroke-width="0.5" stroke-linecap="round" stroke-linejoin="round"/>
<path d="M317.073 73.2127H313.98V76.308H317.073V73.2127Z" fill="white" stroke="#263238" stroke-width="0.5" stroke-linecap="round" stroke-linejoin="round"/>
<path d="M321.702 73.2127H318.609V76.308H321.702V73.2127Z" fill="white" stroke="#263238" stroke-width="0.5" stroke-linecap="round" stroke-linejoin="round"/>
<path d="M326.339 73.2127H323.246V76.308H326.339V73.2127Z" fill="white" stroke="#263238" stroke-width="0.5" stroke-linecap="round" stroke-linejoin="round"/>
<path d="M330.972 73.2127H327.879V76.308H330.972V73.2127Z" fill="white" stroke="#263238" stroke-width="0.5" stroke-linecap="round" stroke-linejoin="round"/>
<path d="M335.609 73.2127H332.516V76.308H335.609V73.2127Z" fill="white" stroke="#263238" stroke-width="0.5" stroke-linecap="round" stroke-linejoin="round"/>
<path d="M340.234 73.2127H337.141V76.308H340.234V73.2127Z" fill="white" stroke="#263238" stroke-width="0.5" stroke-linecap="round" stroke-linejoin="round"/>
<path d="M344.87 73.2127H341.777V76.308H344.87V73.2127Z" fill="white" stroke="#263238" stroke-width="0.5" stroke-linecap="round" stroke-linejoin="round"/>
<path d="M312.437 77.7624H309.344V80.8577H312.437V77.7624Z" fill="white" stroke="#263238" stroke-width="0.5" stroke-linecap="round" stroke-linejoin="round"/>
<path d="M317.073 77.7624H313.98V80.8577H317.073V77.7624Z" fill="white" stroke="#263238" stroke-width="0.5" stroke-linecap="round" stroke-linejoin="round"/>
<path d="M321.702 77.7624H318.609V80.8577H321.702V77.7624Z" fill="white" stroke="#263238" stroke-width="0.5" stroke-linecap="round" stroke-linejoin="round"/>
<path d="M326.339 77.7624H323.246V80.8577H326.339V77.7624Z" fill="white" stroke="#263238" stroke-width="0.5" stroke-linecap="round" stroke-linejoin="round"/>
<path d="M330.972 77.7624H327.879V80.8577H330.972V77.7624Z" fill="white" stroke="#263238" stroke-width="0.5" stroke-linecap="round" stroke-linejoin="round"/>
<path d="M335.609 77.7624H332.516V80.8577H335.609V77.7624Z" fill="white" stroke="#263238" stroke-width="0.5" stroke-linecap="round" stroke-linejoin="round"/>
<path d="M340.234 77.7624H337.141V80.8577H340.234V77.7624Z" fill="white" stroke="#263238" stroke-width="0.5" stroke-linecap="round" stroke-linejoin="round"/>
<path d="M344.87 77.7624H341.777V80.8577H344.87V77.7624Z" fill="white" stroke="#263238" stroke-width="0.5" stroke-linecap="round" stroke-linejoin="round"/>
<path d="M312.437 82.312H309.344V85.4073H312.437V82.312Z" fill="white" stroke="#263238" stroke-width="0.5" stroke-linecap="round" stroke-linejoin="round"/>
<path d="M317.073 82.312H313.98V85.4073H317.073V82.312Z" fill="white" stroke="#263238" stroke-width="0.5" stroke-linecap="round" stroke-linejoin="round"/>
<path d="M321.702 82.312H318.609V85.4073H321.702V82.312Z" fill="white" stroke="#263238" stroke-width="0.5" stroke-linecap="round" stroke-linejoin="round"/>
<path d="M326.339 82.312H323.246V85.4073H326.339V82.312Z" fill="white" stroke="#263238" stroke-width="0.5" stroke-linecap="round" stroke-linejoin="round"/>
<path d="M330.972 82.312H327.879V85.4073H330.972V82.312Z" fill="white" stroke="#263238" stroke-width="0.5" stroke-linecap="round" stroke-linejoin="round"/>
<path d="M335.609 82.312H332.516V85.4073H335.609V82.312Z" fill="white" stroke="#263238" stroke-width="0.5" stroke-linecap="round" stroke-linejoin="round"/>
<path d="M340.234 82.312H337.141V85.4073H340.234V82.312Z" fill="white" stroke="#263238" stroke-width="0.5" stroke-linecap="round" stroke-linejoin="round"/>
<path d="M344.87 82.312H341.777V85.4073H344.87V82.312Z" fill="white" stroke="#263238" stroke-width="0.5" stroke-linecap="round" stroke-linejoin="round"/>
<path d="M396.451 87.4211H365.246V58.2809L380.852 49.8231L396.451 58.2809V87.4211Z" fill="white" stroke="#263238" stroke-linecap="round" stroke-linejoin="round"/>
<path d="M398.839 59.5266L380.855 49.7709L362.871 59.5266L362.305 58.4898L380.855 48.4359L399.398 58.4898L398.839 59.5266Z" fill="white" stroke="#263238" stroke-linecap="round" stroke-linejoin="round"/>
<path d="M365.246 58.2809V58.9895L380.852 50.5316L396.451 58.9895V58.2809L380.852 49.8231L365.246 58.2809Z" fill="#263238" stroke="#263238" stroke-linecap="round" stroke-linejoin="round"/>
<path d="M386.587 68.2678H381.355V71.9075H386.587V68.2678Z" fill="#263238" stroke="#263238" stroke-linecap="round" stroke-linejoin="round"/>
<path d="M386.587 73.1083H381.355V76.748H386.587V73.1083Z" fill="#263238" stroke="#263238" stroke-linecap="round" stroke-linejoin="round"/>
<path d="M386.587 63.1886H381.355V67.0745H386.587V63.1886Z" fill="#263238" stroke="#263238" stroke-linecap="round" stroke-linejoin="round"/>
<path d="M380.154 63.1886H374.922V67.0745H380.154V63.1886Z" fill="#263238" stroke="#263238" stroke-linecap="round" stroke-linejoin="round"/>
<path d="M380.154 73.1083H374.922V76.748H380.154V73.1083Z" fill="#263238" stroke="#263238" stroke-linecap="round" stroke-linejoin="round"/>
<path d="M380.154 68.2678H374.922V71.9075H380.154V68.2678Z" fill="#263238" stroke="#263238" stroke-linecap="round" stroke-linejoin="round"/>
<path d="M386.587 77.9489H381.355V81.2977H386.587V77.9489Z" fill="#263238" stroke="#263238" stroke-linecap="round" stroke-linejoin="round"/>
<path d="M380.154 77.9489H374.922V81.2977H380.154V77.9489Z" fill="#263238" stroke="#263238" stroke-linecap="round" stroke-linejoin="round"/>
<path d="M376.784 98.661H322.705C319.824 98.661 317.488 100.998 317.488 103.882V118.187C317.488 121.071 319.824 123.408 322.705 123.408H376.784C379.665 123.408 382.001 121.071 382.001 118.187V103.882C382.001 100.998 379.665 98.661 376.784 98.661Z" fill="black" stroke="black" stroke-linecap="round" stroke-linejoin="round"/>
<path d="M341.315 117.932V114.893H337.352V112.948L340.751 104.909H343.651V112.996H344.907V114.893H343.651V117.932H341.315ZM339.317 112.996H341.315V107.465L339.317 112.996Z" fill="white"/>
<path d="M349.574 118.157C348.79 118.157 348.14 117.997 347.624 117.675C347.109 117.353 346.722 116.914 346.464 116.357C346.207 115.789 346.078 115.135 346.078 114.395V108.559C346.078 107.798 346.201 107.133 346.448 106.565C346.695 105.986 347.077 105.536 347.592 105.214C348.108 104.893 348.768 104.732 349.574 104.732C350.369 104.732 351.018 104.893 351.523 105.214C352.039 105.536 352.42 105.986 352.667 106.565C352.914 107.133 353.038 107.798 353.038 108.559V114.395C353.038 115.135 352.909 115.789 352.651 116.357C352.393 116.914 352.006 117.353 351.491 117.675C350.975 117.997 350.336 118.157 349.574 118.157ZM349.574 115.971C349.864 115.971 350.073 115.88 350.202 115.697C350.331 115.515 350.417 115.301 350.46 115.054C350.503 114.797 350.524 114.561 350.524 114.347V108.607C350.524 108.371 350.503 108.125 350.46 107.867C350.428 107.61 350.347 107.39 350.218 107.208C350.089 107.015 349.874 106.919 349.574 106.919C349.273 106.919 349.053 107.015 348.913 107.208C348.784 107.39 348.698 107.61 348.655 107.867C348.623 108.125 348.607 108.371 348.607 108.607V114.347C348.607 114.561 348.629 114.797 348.672 115.054C348.715 115.301 348.806 115.515 348.945 115.697C349.085 115.88 349.295 115.971 349.574 115.971Z" fill="white"/>
<path d="M358.353 117.932V114.893H354.39V112.948L357.79 104.909H360.69V112.996H361.946V114.893H360.69V117.932H358.353ZM356.356 112.996H358.353V107.465L356.356 112.996Z" fill="white"/>
<path d="M370.891 134.775C370.891 134.775 367.686 129.599 366.65 128.808C365.614 128.017 363.132 128.062 362.722 129.837C362.312 131.612 363.341 132.53 364.064 133.253C365.002 134.442 365.865 135.687 366.65 136.982C367.537 138.422 367.731 140.637 368.513 142.203C370.302 145.791 373.812 148.834 377.986 148.856C382.607 148.856 387.034 144.896 387.675 140.287C387.928 138.332 387.973 132.888 387.98 131.008C387.987 130.588 387.841 130.18 387.57 129.86C387.223 129.458 386.744 129.194 386.22 129.113C385.696 129.033 385.16 129.141 384.708 129.42L384.366 129.628L384 129.054C383.735 128.601 383.341 128.237 382.868 128.01C382.465 127.797 382.005 127.722 381.556 127.794C381.106 127.867 380.693 128.084 380.378 128.413L380.021 128.808L379.603 128.129C378.694 127.033 376.726 126.928 375.877 128.077V119.873C375.877 119.226 375.62 118.606 375.163 118.148C374.706 117.691 374.086 117.434 373.44 117.434C372.793 117.434 372.173 117.691 371.716 118.148C371.259 118.606 371.003 119.226 371.003 119.873L370.891 134.775Z" fill="white" stroke="#263238" stroke-linecap="round" stroke-linejoin="round"/>
<path d="M379.957 128.778V133.537" stroke="#263238" stroke-linecap="round" stroke-linejoin="round"/>
<path d="M384.305 129.599V133.842" stroke="#263238" stroke-linecap="round" stroke-linejoin="round"/>
<path d="M375.824 128.047V132.91" stroke="#263238" stroke-linecap="round" stroke-linejoin="round"/>
<path d="M373.387 110.788V115.621" stroke="white" stroke-linecap="round" stroke-linejoin="round"/>
<path d="M377.293 118.597H381.385" stroke="white" stroke-linecap="round" stroke-linejoin="round"/>
<path d="M364.84 118.597H368.931" stroke="white" stroke-linecap="round" stroke-linejoin="round"/>
<path d="M376.363 115.621L378.04 113.578" stroke="white" stroke-linecap="round" stroke-linejoin="round"/>
<path d="M369.853 115.621L368.184 113.578" stroke="white" stroke-linecap="round" stroke-linejoin="round"/>
<path d="M400.912 1.00011H298.904C295.747 1.00011 293.188 3.56132 293.188 6.72073V150.229C293.188 153.388 295.747 155.949 298.904 155.949H400.912C404.069 155.949 406.628 153.388 406.628 150.229V6.72073C406.628 3.56132 404.069 1.00011 400.912 1.00011Z" stroke="#263238" stroke-linecap="round" stroke-linejoin="round"/>
<path d="M400.448 1.00011H299.342C297.702 1.00011 296.128 1.65233 294.968 2.81327C293.808 3.97422 293.156 5.5488 293.156 7.19062V8.51822H406.664V7.1757C406.663 6.36121 406.501 5.55494 406.188 4.8032C405.875 4.05146 405.416 3.36907 404.838 2.79522C404.261 2.22137 403.576 1.76738 402.822 1.45932C402.069 1.15126 401.262 0.995199 400.448 1.00011Z" fill="#263238" stroke="#263238" stroke-linecap="round" stroke-linejoin="round"/>
<path d="M389.424 6.36276C390.387 6.36276 391.168 5.58137 391.168 4.61748C391.168 3.65359 390.387 2.87221 389.424 2.87221C388.46 2.87221 387.68 3.65359 387.68 4.61748C387.68 5.58137 388.46 6.36276 389.424 6.36276Z" fill="white" stroke="#263238" stroke-linecap="round" stroke-linejoin="round"/>
<path d="M395.881 6.36276C396.844 6.36276 397.625 5.58137 397.625 4.61748C397.625 3.65359 396.844 2.87221 395.881 2.87221C394.918 2.87221 394.137 3.65359 394.137 4.61748C394.137 5.58137 394.918 6.36276 395.881 6.36276Z" fill="white" stroke="#263238" stroke-linecap="round" stroke-linejoin="round"/>
<path d="M352.957 156.486V188.774" stroke="#263238" stroke-linecap="round" stroke-linejoin="round"/>
</svg>
