<svg width="30" height="30" viewBox="0 0 30 30" fill="none" xmlns="http://www.w3.org/2000/svg">
<g clip-path="url(#clip0_3_6452)">
<path fill-rule="evenodd" clip-rule="evenodd" d="M18.75 18.75L19.9963 20.175C20.1136 20.3093 20.2583 20.4169 20.4206 20.4906C20.583 20.5643 20.7592 20.6025 20.9375 20.6025C21.1158 20.6025 21.292 20.5643 21.4544 20.4906C21.6167 20.4169 21.7614 20.3093 21.8787 20.175L23.125 18.75H26.25C25.8975 20.5124 24.9452 22.0982 23.5553 23.2377C22.1654 24.3772 20.4236 24.9999 18.6263 25H11.3737C9.57643 24.9999 7.83464 24.3772 6.4447 23.2377C5.05476 22.0982 4.10253 20.5124 3.75 18.75H18.75Z" fill="#0C0C23"/>
<path fill-rule="evenodd" clip-rule="evenodd" d="M26.25 11.25H3.75C4.10253 9.48759 5.05476 7.90175 6.4447 6.76227C7.83464 5.62279 9.57643 5.00005 11.3737 5H18.6263C20.4236 5.00005 22.1654 5.62279 23.5553 6.76227C24.9452 7.90175 25.8975 9.48759 26.25 11.25Z" fill="#0C0C23"/>
<path opacity="0.3" d="M26.25 13.75H3.75C3.05964 13.75 2.5 14.3096 2.5 15C2.5 15.6904 3.05964 16.25 3.75 16.25H26.25C26.9404 16.25 27.5 15.6904 27.5 15C27.5 14.3096 26.9404 13.75 26.25 13.75Z" fill="#0C0C23"/>
</g>
<defs>
<clipPath id="clip0_3_6452">
<rect width="30" height="30" fill="white"/>
</clipPath>
</defs>
</svg>
