<svg width="40" height="40" viewBox="0 0 40 40" fill="none" xmlns="http://www.w3.org/2000/svg">
<rect x="0.5" y="0.5" width="39" height="39" rx="5.5" stroke="white"/>
<g clip-path="url(#clip0_212_145)">
<path d="M25.3766 8H14.623C10.9711 8 8 10.9712 8 14.6231V25.3768C8 29.0288 10.9711 31.9999 14.623 31.9999H25.3766C29.0288 31.9999 31.9999 29.0287 31.9999 25.3768V14.6231C32 10.9712 29.0288 8 25.3766 8ZM29.8706 25.3768C29.8706 27.8547 27.8547 29.8705 25.3768 29.8705H14.623C12.1452 29.8706 10.1294 27.8547 10.1294 25.3768V14.6231C10.1294 12.1453 12.1452 10.1294 14.623 10.1294H25.3766C27.8545 10.1294 29.8705 12.1453 29.8705 14.6231V25.3768H29.8706Z" fill="white" stroke="white" stroke-width="0.141959"/>
<path d="M19.9999 13.816C16.5899 13.816 13.8158 16.5902 13.8158 20.0002C13.8158 23.41 16.5899 26.1841 19.9999 26.1841C23.4099 26.1841 26.1841 23.41 26.1841 20.0002C26.1841 16.5902 23.4099 13.816 19.9999 13.816ZM19.9999 24.0545C17.7642 24.0545 15.9451 22.2358 15.9451 20.0001C15.9451 17.7642 17.7641 15.9453 19.9999 15.9453C22.2358 15.9453 24.0547 17.7642 24.0547 20.0001C24.0547 22.2358 22.2356 24.0545 19.9999 24.0545Z" fill="white" stroke="white" stroke-width="0.141959"/>
<path d="M26.4434 12.0105C26.0332 12.0105 25.6302 12.1766 25.3404 12.4676C25.0493 12.7572 24.8819 13.1604 24.8819 13.572C24.8819 13.9824 25.0494 14.3855 25.3404 14.6765C25.63 14.9661 26.0332 15.1336 26.4434 15.1336C26.8551 15.1336 27.2569 14.9661 27.5479 14.6765C27.8389 14.3855 28.005 13.9823 28.005 13.572C28.005 13.1604 27.8389 12.7572 27.5479 12.4676C27.2583 12.1766 26.8551 12.0105 26.4434 12.0105Z" fill="white" stroke="white" stroke-width="0.141959"/>
</g>
<defs>
<clipPath id="clip0_212_145">
<rect width="24" height="24" fill="white" transform="translate(8 8)"/>
</clipPath>
</defs>
</svg>
