<svg width="40" height="40" viewBox="0 0 40 40" fill="none" xmlns="http://www.w3.org/2000/svg">
<rect x="0.5" y="0.5" width="39" height="39" rx="5.5" stroke="white"/>
<path fill-rule="evenodd" clip-rule="evenodd" d="M22.8107 11.0774C23.2835 10.9941 23.8131 10.9663 24.3115 11.053C25.2017 11.2079 26.0238 11.6334 26.6738 12.2713C27.0986 12.2812 27.5161 12.1951 27.8855 12.0724C28.1981 11.9686 28.4623 11.8431 28.6473 11.744C28.7393 11.6947 28.8104 11.6526 28.8566 11.6242C28.8797 11.61 28.8965 11.5992 28.9065 11.5927L28.9153 11.5869C29.1914 11.3977 29.559 11.4345 29.7943 11.6752C30.0296 11.9158 30.0675 12.2937 29.8849 12.5787C29.6917 12.8804 29.4234 13.4181 29.123 14.0206C29.0757 14.1154 29.0276 14.2117 28.979 14.309C28.8066 14.6534 28.6298 15.0014 28.4651 15.3001C28.3617 15.4876 28.2511 15.6779 28.1395 15.8424V16.1044C28.1466 17.0665 28.0393 18.0236 27.8216 18.9547C27.6845 19.5406 27.5038 20.1162 27.2804 20.6762C26.7014 22.1272 25.8471 23.4451 24.7674 24.5528C23.6875 25.6605 22.404 26.5357 20.9917 27.1275C19.5807 27.7187 18.0693 28.0151 16.5457 27.9994C14.337 28.0014 12.1748 27.3469 10.3193 26.1147C10.046 25.9332 9.93093 25.5815 10.0419 25.2671C10.153 24.9525 10.4606 24.7586 10.7834 24.7998C11.0628 24.8354 11.3441 24.8527 11.6257 24.8517C12.6373 24.8489 13.6296 24.619 14.5355 24.1858C14.2475 24.051 13.9726 23.8849 13.7157 23.6889C12.9607 23.1131 12.3989 22.3094 12.1086 21.3899C12.0331 21.151 12.0847 20.8888 12.2445 20.6988C12.2474 20.6954 12.2503 20.692 12.2532 20.6887C12.0825 20.5322 11.9227 20.3617 11.7757 20.1784C11.114 19.3535 10.7496 18.3187 10.7443 17.2494L10.7442 17.2457L10.7443 17.1978C10.7443 16.9435 10.8752 16.7081 11.0884 16.5792C11.1424 16.5465 11.1997 16.5219 11.2587 16.5055C10.9439 15.8596 10.7803 15.1464 10.7815 14.4228C10.7811 13.6031 10.9893 12.7976 11.3853 12.0863C11.4997 11.8809 11.7051 11.7467 11.9344 11.7276C12.1637 11.7085 12.3875 11.8069 12.5325 11.9907C13.4279 13.1254 14.5453 14.0536 15.8123 14.7152C16.4636 15.0553 17.1469 15.321 17.8499 15.5089C18.2441 15.6143 18.6445 15.6952 19.049 15.7511C19.0311 15.0591 19.1639 14.3675 19.4428 13.7285C19.8518 12.791 20.5517 12.0197 21.4329 11.5355C21.8061 11.3305 22.3014 11.1672 22.8107 11.0774ZM12.3194 18.2985C12.44 18.6476 12.6194 18.9751 12.852 19.2651C13.309 19.8348 13.9434 20.2248 14.6478 20.3688C14.9616 20.433 15.1926 20.7085 15.2085 21.0371C15.2243 21.3657 15.0208 21.6633 14.7148 21.7591C14.4613 21.8384 14.2016 21.8937 13.939 21.9244C14.1125 22.1545 14.3167 22.3607 14.5468 22.5361C15.0689 22.9342 15.6986 23.1552 16.3484 23.168C16.6432 23.1738 16.9026 23.3697 16.9964 23.6572C17.0901 23.9447 16.9981 24.2618 16.7663 24.4493C15.7904 25.2392 14.6618 25.7899 13.466 26.0711C14.4571 26.3975 15.4966 26.5656 16.548 26.5643H16.5561C17.8957 26.5786 19.2246 26.3183 20.4652 25.7984C21.706 25.2786 22.8334 24.5097 23.782 23.5367C24.7304 22.5637 25.4808 21.406 25.9895 20.1314C26.1858 19.6393 26.3446 19.1338 26.4649 18.6192C26.6564 17.8004 26.7506 16.9588 26.7442 16.1128V16.1071V15.6001C26.7442 15.4261 26.8057 15.258 26.9171 15.1272C26.9816 15.0515 27.0943 14.8769 27.2515 14.5919C27.4009 14.321 27.5663 13.9958 27.7383 13.6521C27.7487 13.6314 27.7592 13.6105 27.7697 13.5895C27.3235 13.6891 26.8179 13.7414 26.2878 13.6824C26.12 13.6638 25.9644 13.5831 25.8499 13.4555C25.3821 12.9337 24.7592 12.5864 24.0788 12.468C23.7769 12.4155 23.4119 12.4275 23.0462 12.4919C22.6489 12.562 22.3032 12.6844 22.0904 12.8013C21.4818 13.1358 20.9983 13.6685 20.7158 14.316C20.4333 14.9635 20.3677 15.6892 20.5294 16.3791C20.581 16.5991 20.5287 16.8312 20.3882 17.0053C20.2477 17.1795 20.0357 17.2753 19.8159 17.2639C19.0314 17.2231 18.2551 17.1 17.499 16.8979C16.6991 16.684 15.9216 16.3818 15.1806 15.9948C14.0897 15.4252 13.0961 14.6817 12.2358 13.7941C12.1966 14.0004 12.1767 14.2109 12.1768 14.4228V14.4246C12.1758 14.9515 12.3015 15.4705 12.5428 15.9353C12.784 16.4002 13.1332 16.7964 13.5594 17.0889C13.818 17.2663 13.9312 17.5984 13.837 17.9031C13.7428 18.2079 13.464 18.4117 13.1532 18.403C12.8717 18.3952 12.5926 18.36 12.3194 18.2985Z" fill="white"/>
</svg>
